<?xml version="1.0" encoding="utf-8"?>
<!-- Generator: Adobe Illustrator 16.0.4, SVG Export Plug-In . SVG Version: 6.00 Build 0)  -->
<svg version="1.2" baseProfile="tiny" id="Layer_1" xmlns="http://www.w3.org/2000/svg" xmlns:xlink="http://www.w3.org/1999/xlink"
	 x="0px" y="0px" width="54px" height="59.682px" viewBox="0 0 54 59.682" xml:space="preserve">
<path fill="#2E84C1" d="M49.802,32.685c0.582-0.146,2.047-0.073,1.967-1.208c0.148,0.255,0.344,0.335,0.586,0.24
	c-0.029,0.372-0.188,0.616-0.344,0.863c0.258,0.001,0.418,0.104,0.482,0.312c0.242,0.038,1.672-0.038,1.484,0.688
	c-0.205,0.793-1.797-0.462-2.59-0.066c0.188,0.688,0.842,0.771,0.207,1.587c-1.023-0.139-0.756-2.195-2.348-1.587
	c-0.004-0.096,0.057-0.069,0-0.14c-0.863,0.312-1.098-0.161-2.07,0.621c-0.019,0.062,0.34,0.87,0.311,1.069
	c-0.637,1.851-0.904,3.347-1.691,5.315c-0.304-0.016-0.468,0.106-0.725,0.14c0.01-0.079-0.008-0.129-0.069-0.14
	c-0.521,0.194-1.144,1.754-1.415,2.209c0.533-0.112,1.039-0.297,1.52-0.552c0.271,0.11,0.387,0.374,0.587,0.552
	c-0.329,0.097-0.468,0.279-0.414,0.555c-0.241,0.003-0.38,0.152-0.413,0.446c0.581,0.574,1.056,0.543,1.656,1.035
	c-0.277,0.334-0.635,0.542-1.069,0.622c0.551,0.306,3.147,2.312,2.933,3.176c-0.66-0.021-1.053-0.297-1.173-0.829
	c-0.112-0.043-0.026,0.111-0.138,0.068c-0.514-0.815-1.326-0.646-1.796-1.553c-0.237,0.088-0.443,0.008-0.62-0.241
	c0.025-0.142,0.675,1.576,0.621,1.52c-0.542,0.808-1.105-0.283-1.035-0.76c0.031,0.057-0.866-0.882-0.691-0.861
	c-0.259,0.5-0.022,1.584-0.104,2.175c-0.271,0.188-0.491,0.143-0.655-0.14c-0.093-0.535-0.928-2.704-0.483-3.416
	c-1.027,0.175-2.601,3.173-3.416,3.729c-0.148-0.024-0.205-0.141-0.414-0.104c-0.579,0.396-0.786,0.902-0.621,1.521
	c-0.559,0.188-1.11,0.13-1.657-0.173c-0.354,0.508-0.588,1.141-0.481,1.726c-0.234,0.294-0.552,0.09-0.898,0.242
	c-0.146,0.823,0.602,0.873,0.828,1.139c-0.024,0.15,0.059,0.194,0.033,0.346c0.062,0.063,0.107-0.01,0.14-0.067
	c0.139,0.195,0.44,0.227,0.448,0.552c0.25,0.032,0.418-0.019,0.482-0.172c0.006,0.218,0.076,0.414,0.208,0.586
	c-0.264,0.474-2.429-1.113-2.243-1.416c-0.328,0.157,0.264,0.367,0,0.587c0.022,0.086,0.092-0.063,0.172-0.035
	c-0.293,1.405,1.562,3.027,1.381,4.592c-0.385,0.176-0.584-0.241-0.828-0.414c0.164-0.437,0.199-0.885,0.105-1.348
	c-0.053-0.112-0.041,0.116-0.14,0.07c-0.031,0.178-1.259-2.57-1.45-2.624c-0.605,0.123-0.688,1.824-1.414,1.45
	c-0.097-0.169,0.24-2.959,0.104-3.624c-0.036,0.312-0.614,0.462-0.69,1c-0.08-0.01-0.132,0.006-0.172,0.034
	c0.106,0.151-0.052,0.279-0.069,0.415c-0.603,0-2.604,0.545-2.935,0.518c-0.699-0.065-2.027-2.107-3.279-0.896
	c0.652,0.637,0.648,0.888,0.794,1.655c-0.597-0.566-1.16-0.556-1.691,0.035c0,0.469,0.059,0.931,0.174,1.381
	c-0.092,0.022-0.105,0.01-0.208,0.068c-0.022,0.126,0.075,0.133,0.069,0.24c-0.106,0.045-0.246,0.055-0.381,0.069
	c-0.248-0.323-0.356-0.628-0.586-0.967c-1.615,0.637-0.244,4.966-1.969,5.178c-0.671-1.271,0.857-3.506,0.414-4.936
	c-0.007,0.025-1.175,0.309-1.243,0.346c0.132,0.154,0.621-2.213,0.345-2.416c-0.264-0.03-0.317,0.053-0.656,0.034
	c-0.026-0.03-0.036-0.079-0.034-0.14c-0.194,0.188-0.511,0.237-0.726,0.035c-0.026-0.425,0.157-0.724,0.553-0.897
	c0.254-0.068,0.832-0.517,1.174-0.414c-0.467-1.343-2.53-1.496-3.486-1.001c-0.182-0.031-0.723-1.131-0.689-1.277
	c-0.394-0.484-1.895-0.225-1.967,0.381c-1.916-0.908,0.121-1.987-2.795-1.933c-0.429-0.675,0.016-5.069-2.899-0.381
	c0.046,0.322,0.237,0.5,0.276,0.828c-0.134,0.224-0.443,0.271-0.69,0.38c-0.308-0.332-0.491-0.712-0.552-1.14
	c-0.731-0.081-0.336,0.776-0.967,0.622c0.055,0.443-0.226,0.353-0.483,0.414c0.161-0.077-1.671,2.409-1.761,1
	c-0.004-0.08,0.129-0.278,0.14-0.483c0.489,0.237,0.788,0.168,0.897-0.208c0.109,0.017,0.144,0.108,0.274,0.104
	c0.433-0.123,1.008-1.756,1.278-1.797c-0.026-0.09-0.028-0.201-0.104-0.24c-0.334,0.359-0.69,0.372-1.071,0.034
	c0.025-0.104,0.041-0.214,0.104-0.275c-0.413,0.024-0.597-0.183-0.552-0.621c0.101-0.096,0.242-0.148,0.344-0.242
	c0.029,0.087,0.096,0.137,0.104,0.242c0.074-0.022,0.153-0.091,0.209-0.035c0.023,0.107,0.023,0.066,0,0.173
	c0.041,0.04,0.121,0.04,0.207,0.035c-0.024,0.105,0.035,0.125,0.035,0.207c1.098,0.402,5.729-2.183,1.656-1.969
	c0.285-0.354,0.436-0.743,0.449-1.174c0.072-0.015,0.091,0.023,0.137,0.033c1.07-0.849-0.931-1.142-1.104-1.173
	c0.029-0.109-0.055-0.105-0.069-0.174c-0.269-0.031-0.522,0.027-0.759,0.174c-0.068-0.109,0.039-0.293,0-0.482
	c0.072-0.021,0.099-0.086,0.208-0.07c0.31-1.261-0.065-1.192-0.208-2.381c-0.783,0.147-2.141,3.677-1.934,0.76
	c-0.39,0.285-0.804,0.527-1.242,0.727c0.012-0.069-0.008-0.108-0.069-0.104c-0.233,0.596-0.591,0.826-1.07,0.691
	c-0.051-0.136-0.202-0.262-0.1-0.45c0.221,0.093,1.038-1.012,1.069-1.104c-0.789,0.195-1.933,0.771-2.761,0.761
	c-0.081,0.028,0.095,0.086,0.034,0.207C1.142,40.571,0.369,40.824,0,40.521c0.253-0.369,0.599-0.529,1.036-0.481
	c0.141-0.031,2.439-0.841,2.623-1.072c0.176,0.184,1.455-0.605,1.761-0.621c-0.157-0.463-2.456-0.003-2.934-0.034
	c-0.238-0.455,2.829-0.874,2.761-0.827c-0.195-0.754-1.504-0.16-1.691-0.827c0.316-0.697,2.881,0.088,3.349,0.241
	c-0.087-1.204-1.351-1.812-1.416-2.763c-0.03-0.269-0.066-0.854,0.034-1.208c-0.356-1.032,0.099-0.95,0-2.003
	c-1.328-0.88-1.021-1.421-0.344-2.002c0.547-0.458-0.274-0.883-0.588-1.173c-0.318-0.115-0.959,0.475-1.416,0.448
	c-0.248,0.104-0.443,0.674-0.76,0.689c-0.3-0.048-0.461-0.231-0.482-0.553c0.068-0.271,1.137-1.386,1.519-1.001
	c0.044-0.082,0.058-0.194,0.104-0.275c-0.43-0.034-0.82-0.194-1.174-0.482c-0.005-0.085,0.055-0.107,0.069-0.172
	c-0.131-0.073-0.258,0.036-0.345-0.104c-0.026-0.105,0.119-0.042,0.068-0.173c0.305-0.006,0.457,0.143,0.795,0.104
	c0.184-0.673-0.932-0.879-0.242-1.829c1.397-0.276,0.791,2.515,2.484,2.244c0.27-0.044,0.682-0.493,0.69-0.863
	c-0.542-0.5-0.669-1.075-0.38-1.726c2.16-0.6,0.236-1.139,1.14-2.624c0.813,0.309,0.922-0.486,1.622-0.554
	c-0.154-0.721,0.959-1.766,1.139-2.589c-0.427,0.103-0.621,0.438-0.931,0.656c-0.407-0.03-0.772-0.103-0.726-0.586
	c0.487-0.089,0.765-0.469,0.828-1.139c-0.086-0.418-4.681-0.863-1.379-2.175c0.108-0.754-0.63-0.658-0.76-1.174
	c-0.074-0.005-0.109,0.028-0.104,0.104c-1.084-0.176-1.455-1.833-2.209-2.416c0.287,0.019,0.494-0.085,0.621-0.311
	c2.99,0.654,1.981,1.206,4.937,0.552c0.11,0.309,0.583,3,0.793,3.106c1.114,0.132,2.294-3.15,2.313-0.345
	c0.232,0.005,2.668-1.549,2.761-1.623c-0.183-1.879,1.788-1.736,3.038-1.898c0.443-1.098-1.584-1.906-2.071-2.38
	c-0.304,0.397-0.707,0.408-1.208,0.034c0-0.486,0.365-0.323,0.689-0.311c0.074-0.092-0.149-0.094-0.035-0.24
	c0.352,0.124,2.053,0.837,2.451,0.897c-0.52-0.661-0.61-1.271-0.275-1.831c-0.26-0.5-0.604-1.825-0.967-2.209
	c0.109-0.052,0.136-0.187,0.311-0.172c-0.104,0.719,0.932,2.183,1.07,2.761c0.503-0.143,0.732-0.406,0.689-0.793
	c0.293-0.222,0.582-0.232,0.863-0.034c0.049,0.153-0.02,0.241,0,0.447c-0.072-0.035-0.173,0.03-0.172-0.139
	c-0.216,0.049-0.253,0.278-0.242,0.553c-0.104,0-0.208,0-0.311,0c-0.307,1.567,0.455,4.051,2.484,2.312
	c0.049-0.39,0.201-1.341,0.207-1.691c0.906-0.182,0.674,0.855,0.725,1.173c0.087,0.005,0.144-0.017,0.173-0.067
	c0.085,0.043,1.054,0.358,1.069,0.38c0.558-0.33,1.324-0.861,1.209-1.622c0.143-0.058,0.33-0.162,0.482-0.104
	c0.32,1.244,0.564,2.124,2.381,1.484c-0.432-0.582-0.972-0.961-1.621-1.139c0.603-0.806,1.387-0.755,2.484-0.793
	c-0.118-0.74-0.688-0.751-1.312-0.968c-0.052-0.434,0.131-0.539,0.312-0.793c0.231,0.171,0.745-0.178,1.069-0.173
	c0.076-0.106,0.197-0.172,0.242-0.311c0.101-0.009,0.104,0.078,0.205,0.067C29.25,3.7,31.142,2.857,30.752,1.312
	c0.048,0,0.093,0,0.14,0c0.035-0.231-0.156-0.236-0.207-0.38c0.166-0.175,0.057-0.646,0.312-0.828
	c0.051,0.018,0.087,0.052,0.138,0.067C31.204,0.151,31.157,0.01,31.238,0c2.646,1.613-2.318,5.247,2.347,5.384
	c0.479,0.643-0.326,0.938-0.689,1.208c-0.02-0.049,0.041-0.178-0.033-0.172c-0.155,0.426-0.42,0.783-0.795,1.069
	c0.328,0.936,1.966,0.653,2.175,1.312C34.05,8.982,34.068,9.195,34,9.457c-0.149-0.107-0.364,0.028-0.448-0.172
	c-0.006,0.421-0.271,0.629-0.793,0.622c-0.68,2.408,2.793,0.59,3.004,1c0.108,0.018,0.012-0.171,0.139-0.137
	c0.464,0.082,1.728,0.983,2.796,1.174c0.118,0.531-0.373,0.454-0.379,0.863c0.024,0.109,0.255-0.036,0.241,0.034
	c0.041,0.157-0.123,0.109-0.14,0.207c0.196,0.38,0.399,0.75,0.828,0.898c1.046-1.448,1.054-2.578,2.002-4.108
	c0.89-0.082,0.5,1.826,0.554,2.142c-0.049-0.003-0.099-0.006-0.104,0.033c0.054,0.257,0.104,0.4,0.069,0.656
	c0.098,0.082,0.797-0.396,0.828-0.621c0.396,0.073,2.655-2.327,2.655-2.795c0.312-0.04,0.612-0.133,0.897-0.275
	c-0.01,0.125-0.771,1.092-1.034,1.035c-0.407,0.797-1.504,2.468-2.279,2.693c-0.009,0.101,0.065,0.119,0.104,0.172
	c0.132-0.009,0.209-0.272,0.312-0.104c0.089-0.008-0.048-0.061,0-0.139c0.505-0.157,1.021-0.203,1.552-0.138
	c0.023,0.689-1.574,0.093-1.69,0.759c-0.556,0-0.812,0.575-1.347,0.621c0.022,0.348,0.252,0.474,0.689,0.38
	c0.025,0.202,0.018,0.443-0.068,0.622c-0.555,1.099-0.897,0.492-1.727,0.449c-0.079-0.011-0.038,0.099-0.104,0.104
	c0.619,1.318,1.803,0.761,2.727,1.173c0.109,0.017,0.025-0.159,0.104-0.172c-0.412-0.042,0.131,2.528,0.14,2.588
	c0.356-0.035,0.627,0.068,1,0.067c0.017,0.181,0.178,0.215,0.139,0.448c-0.082,0-0.103,0.061-0.207,0.035
	c-0.036,0.079-0.022,0.208-0.069,0.276c-0.076,0.092-0.172-0.05-0.24,0.034c0.113,0.209,0.275,0.748,0.482,0.933
	c1.319,1.189,1.023-1.438,1.348-1.762c0.289,0.056,0.563,0.127,0.759,0.276c0.204,0.402,0.147,0.69-0.173,0.863
	c0.244,0.079,0.312,0.251,0.207,0.518c-0.107,0.017-0.092-0.094-0.172-0.104c0.315,1.271,0.957-0.375,1.519-0.483
	c0.104-0.035,0.062,0.076,0.067,0.138c0.387-0.174,0.64-0.07,0.761,0.311c-0.104,0.266-0.283,0.453-0.554,0.553
	c0.016,0.054,0.107,0.029,0.067,0.137c-0.092,0.047-0.157,0.118-0.239,0.174c0.213,0.774,3.213-0.979,3.899-0.345
	c0.028,0.155-0.08,0.173-0.104,0.276c-0.633,0.17-2.295,1.306-2.934,1.208c-0.279,0.129-0.477,0.336-0.587,0.621
	c0.001,0.009,1.813,0.811,1.829,0.828c0.027,0.307-0.122,0.444-0.448,0.415c-0.104,0.012-0.069-0.112-0.104-0.173
	c-0.698-0.06-1.564-0.463-2.036,0.415c0.661,0.419,0.973,0.971,0.933,1.655c-1.102,0.041-0.9-0.307-2.003-0.621
	c0.166,1.302,0.144,7.994,2.935,6.661C49.604,32.441,49.755,32.55,49.802,32.685C49.999,32.635,49.755,32.55,49.802,32.685z
	 M24.017,15.978c-0.043,0.016-0.07,0.045-0.068,0.104c0.052-0.039,0.104-0.044,0.154-0.017l-0.018-0.051
	c1.807,0.1,2.625-1.434,3.487,0.345c-0.388-0.052-1.244,1.339-1.244,1.623c0.74,0.022,1.2,0.473,1.38,1.347
	c0.186,0.001,2.348-7.463,1.52-8.353c-2.907-1.492-10.793,1.901-7.767,2.14c0.644,0.246,5.205-0.943,4.349,0.795
	c-0.525-0.073-1.614,1.688-1.812,2.02L24.017,15.978z M30.681,11.353c1.172,1.704-2.371,6.558-1.623,8.628
	c0.973,0.418,2.539-1.353,3.485-1.208c0.298-0.971-1.505-2.772-0.655-3.625c0.453-0.025,6.756,4.05,6.869,0.034
	c-1.75-1.757-5.703-3.97-8.353-3.97C30.386,11.37,30.531,11.362,30.681,11.353C30.853,11.604,30.531,11.362,30.681,11.353z
	 M18.149,12.492c-0.157,0.004-0.135,0.028-0.276,0c-0.055,0.057,0.042,0.155-0.069,0.207c-0.113,0.01-0.074-0.134-0.172-0.138
	c-0.148,0.066-0.205,0.169-0.173,0.31c-0.935-0.209-3.299,2.35-3.28,3.314c-0.033,0-0.068,0-0.104,0
	c1.605,2.125,0.203,4.45,3.658,5.452c0.096,0.335,0.326,0.564,0.689,0.691c0.186-0.339,0.324-0.696,0.414-1.071
	c-0.482,0.092-0.838,0.095-1.208,0.174c-0.792-3.499,0.435-0.048,0.656-2.071c-0.924-0.341-1.751-0.78-2.624-1.174
	c0.193-0.35,0.057-0.671-0.414-0.967c2.475-2.859,2.92-1.632,3.624-4.971c-0.157,0.021-0.188-0.086-0.241-0.172
	C18.638,12.382,18.302,12.344,18.149,12.492C17.992,12.497,18.302,12.344,18.149,12.492z M19.91,14.425
	c0.185,0.635,0.069,0.979-0.345,1.034c-0.025,0.106,0.035,0.126,0.035,0.208c-0.348,0.182-0.692,0.365-1.037,0.552
	c-0.019-0.049-0.053-0.084-0.104-0.104c-0.305,0.666-1.023,0.77-1.312,1.381c0.889,0.523,2.007,0.651,2.97,0.863
	c-0.11-0.749,0.034,1.938-0.104,1.656c0.291,0.01,0.566-0.048,0.828-0.173c-0.076,0.357-0.041,0.691,0.104,1.001
	c-4.354,0.778,1.138,4.166,2.347,4.901c0.85-1.495-1.186-4.678-0.691-6.489c0.074,0.202,0.137,0.416,0.104,0.726
	c0.085-0.004,0.167-0.005,0.208,0.034c-0.176,0.259-0.084,0.513,0.275,0.76c0.012-0.116-0.045-0.299,0.104-0.275
	c0.16,1.168,1.086,2.263,1.414,3.383c0.349-0.047,0.556,0.171,0.621,0.656c0.134-0.073,0.206-0.209,0.38-0.241
	c0.112-3.883-1.378-3.812-1.829-5.764c0.286-0.458,1.007-0.944,1.208-1.484c-2.355-0.299-3.566,0.982-2.554-2.624
	c-0.853-0.076-1.91-0.321-2.556-0.415C19.882,14.075,19.913,14.268,19.91,14.425C19.702,14.688,19.913,14.268,19.91,14.425z
	 M42.449,20.154c-0.451-1.496-0.966-3.082-2.485-3.9c-3.029,2.783-1.351,3.709-0.311,6.455c-0.531,1.559-2.643,0.089-3.59,0.932
	c0.094,0.759-0.045,1.46-0.414,2.104c0.475-0.488,0.957-0.626,1.449-0.415c0.039-0.289,1.146-0.615,1.52-0.622
	c-0.15-0.428,0.648-0.406,0.725-0.482c0.902,0.091,3.482-2.454,3.141-3.591c-0.084-0.023-0.143,0.153-0.205,0.034
	C42.349,20.437,42.331,20.319,42.449,20.154C42.39,19.953,42.331,20.319,42.449,20.154z M30.921,23.364c0.012,0,0.022,0,0.033,0
	c0.068-0.046-0.01-0.24,0.104-0.241c0.248-0.022,0.433,0.115,0.554,0.415c0.067-0.219,0.366-0.209,0.483-0.38
	c0.082-0.398-0.035-0.617-0.347-0.656c0.047-0.01,0.028-0.086,0.035-0.139c0.051,0.041,0.086,0.041,0.138,0
	c0.021-0.093-0.044-0.273,0.034-0.311c0.378-0.094,0.666,0.045,0.862,0.415c0.503-0.215,0.63-0.583,0.381-1.104
	c-0.229-0.079-0.014,0.073-0.241,0.068c-0.176-0.148-0.356-0.473-0.276-0.761c0.246-0.015,0.196,0.265,0.312,0.38
	c0.001-0.033,0.043-0.026,0.067-0.034l0.041,0.052c0.07-0.04,2.14-0.584,1.236,0.294c-0.095-0.226,0.129-0.268,0.241-0.38
	c-0.002,0.141,0.11,0.167,0.104,0.311c-0.223,0.212-0.289,1.508-0.414,1.52c-2.515-0.071,1.156-0.053-0.896,1.588
	c-0.154-0.204-0.365-0.35-0.553-0.519c-0.135,0.517,0.189,1.891-0.379,2.175c-0.277-0.149-0.361-0.49-0.553-0.726
	c-0.287,0.319-0.483,0.688-0.588,1.104c1.404,1.095,2.17-1.035,3.037-1.035c0.172-0.624,0.676-1.166,0.448-1.967
	c-0.086-0.039-0.168-0.086-0.24-0.139c-0.053,0.053-0.011,0.197-0.139,0.172c0.021-0.11-0.011-0.173-0.069-0.207
	c0.817-1.021,2.188-0.254,3.105-1.069c-0.235-0.161-0.271-0.333-0.104-0.519c-0.505-2.546,0.824-2.448,1-4.936
	c-0.463,0-0.521,0.516-1.035,0.482c0,0.059,0,0.116,0,0.174c-0.688,0.051-2.287,0.711-3.105,0.827
	c-0.021-0.147-1.662,1.949-2.071,2.003c-0.284,0.08-0.696,0.115-1.069,0.172c-0.004,0.055,0.018,0.132-0.035,0.138
	c-2.187-0.584-2.35,3.145-1.827,4.281c-0.011,0.037-0.068,0.021-0.069,0.067c0.104,0.022,0.121,0.133,0.276,0.104
	c0.338-1.007,1.489-0.423,1.483-1.553l0.051-0.019L30.921,23.364z M11.522,19.879c-0.043,0.404-0.932,0.529-1.104,0.553
	c-0.053-0.042-0.134-0.11-0.207-0.035c-1.163,1.629-3.313,4.067-3.039,6.558c2.158,1.426,3.267-1.846,3.728-3.381
	c-0.047-0.073,1.797,2.209,1.451,1.864c1.649-1.131,0.699-2.117,2.968-1.795c0.28,0.476,0.706,0.809,1.276,1.001
	c-0.101-1.562-0.482-2.17-1.897-3.21c-0.095-0.025-0.07,0.067-0.138,0.067C13.399,19.871,12.927,20.76,11.522,19.879
	C11.517,19.929,11.611,19.935,11.522,19.879z M17.218,33.202c0.887-0.346,1.696-0.938,2.692-1.243
	c0.026,0.007,0.041,0.028,0.035,0.068c0.321-0.187,1.245-0.272,0.966-0.863c-0.257-0.142-0.453-0.119-0.587,0.068
	c-0.153-1.403-2.331,0.117-2.417,0.139c-0.342-0.31,0.047-0.686-0.104-1.104c-0.062-0.013-0.578-0.17-0.588-0.172
	c-0.002,0.074-1.482,1.251-1.207,1.312c0.637,0.556,0.161-2.269-0.38-1.794c0.087,0.013,0.003,0.134-0.069,0.104
	c0.028-0.154-0.061-0.191-0.172-0.208c-0.013,0.482-0.23,0.806-0.656,0.968c-0.317-0.869-1.104-1.149-1.139-1.968
	c0.053-0.03,1.039,0.359,1.174,0.311c0.186-0.068,0.146-0.262,0.172-0.519c0.07,0.02,0.068,0.104,0.138,0.035
	c0.077-0.294,0.03-0.559-0.138-0.794c0.209-0.116,0.365-0.31,0.621-0.207c0.076,0.201-0.277,2.073,0.828,1.45
	c-0.334-2.059,0.096-0.698,0.448-1.656c0.364,0.495,0.445,1.025,0.241,1.588c0.249-0.078,0.387-0.009,0.414,0.207
	c0.245-0.142,0.572,0.043,0.759-0.067c0.047-0.109,0.007-0.116,0-0.241c0.06,0.002,0.106-0.008,0.138-0.035
	c-0.033-0.241,0.039-0.307-0.033-0.586c0.06,0.002,0.106-0.008,0.138-0.035c-0.22-0.39-0.093-0.701,0.379-0.931
	c0.185,0.968-0.319,1.588,0.242,2.347c1.083-0.598,0.458,0,1.208,0.242c0.14-0.107,0.007-0.259,0-0.415
	c0.421,0.019,0.551,0.226,0.931,0.068c0.052-0.446-2.04-3.439-2.348-3.418c-0.32,0.081-1.16,0.65-1.45,0.69
	c-0.059-0.011,0.045-0.121-0.104-0.104c-0.094-0.024,0.024,0.163-0.069,0.139c-0.229-0.287-0.528-0.424-0.897-0.414
	c0-1.562-3.113-2.188-2.935,0c0.086-0.005,0.167-0.007,0.172,0.068c-0.294,0.23-0.329,0.449-0.103,0.655
	c-1.209,1.688-1.43-0.869-2.485-1.174c-1.31,2.218-1.354,2.366-3.935,2.175c-0.313-1.896,5.451,5.236,2.416,3.866
	c0.912-0.086,1.947-1.275,2.555-1.83c1.361,0.271,1.888,6.367,4.693,1.9c-0.22-0.014,0.646,0.723,0.586,0.519
	C17.562,32.627,17.132,32.933,17.218,33.202C17.365,33.145,17.132,32.933,17.218,33.202z M44.97,28.266
	c-0.482-0.172-4.455-5.122-5.521-1.863c-0.014,0.189-3.393,1.175-3.35,1.174c-0.002-0.009-1.588,0.756-1.762,0.759
	c0.333,0.665,2.619-0.222,2.899-0.621c0.372-0.078,1.995-0.491,1.862,0.449c0.051,0.02,0.179-0.04,0.174,0.035
	c-0.119,0.451-0.072,0.876,0.138,1.277c0.448-0.354,2.819-2.442,3.004-2.451c0.049-0.003,0.035,0.21,0.104,0.104
	c0.039-0.051,0.028-0.153,0.139-0.138c0.48,0.296,0.109,1.205,0.104,1.553c-0.627,2.375,0.168,2.119,1.967,3.211
	c0.013-0.059-0.051-0.089,0-0.104c0.492,0.417,0.742,0.038,0.793-0.276c0.99-0.957,0.062-1.91,0.104-3.037
	c-0.185,0.043-0.241,0.158-0.173,0.346c-0.082-0.013-0.13-0.055-0.241-0.035c0.04-0.096,0.005-0.205-0.069-0.275
	c-0.033,0.046-0.057,0.104-0.104,0.139C44.991,28.449,44.946,28.393,44.97,28.266C44.612,28.139,44.946,28.393,44.97,28.266z
	 M7.415,28.853c-1.214,0.282-0.679,4.343-0.173,5.28c0.497-0.072,1.771,0.364,2.209,0.725c0.056,0.017,1.466,0.081,1.553,0.312
	c0.015-0.065,0.013-0.147,0.104-0.138c0.221-0.03,4.166,0.095,3.97-0.794c-0.593-0.207-4.009-2.65-3.452-2.691
	c-0.852,0.37-1.622,0.865-2.312,1.484c-0.144-0.224-0.34-0.28-0.586-0.173c-0.188-1.238-0.141-2.017,0.104-3.279
	C8.224,29.56,7.751,29.318,7.415,28.853C7.313,28.877,7.524,29.02,7.415,28.853z M31.646,29.543
	c-0.219-0.171-0.449-0.147-0.691,0.07c0.43,0.045,0.627,0.217,0.588,0.517c0.105,0.027,0.066-0.094,0.172-0.067
	c0.895,0.421,0.326,0.269,1.208,0.104c-0.077,0.545,0.343,0.658,0.621,0.934c0.257-0.079,0.359-0.31,0.587-0.414
	c0.5,0.063,0.747,0.651,1.555,0.689c0.082,0.111,0.096,0.479,0.274,0.379c-0.084-0.003-0.007-0.112,0.035-0.104
	c0.245,0.275,0.544,0.427,0.896,0.448c-0.379,0.058-0.494,0.3-0.346,0.726c1.436,0.022-2.249,0.37-1.863,0.413
	c-0.086-0.145,0.024-0.204,0.035-0.345c-0.31,0.057-0.441,0.082-0.621,0.239c0.145,0.283,0.063,0.524-0.242,0.726
	c-0.25-0.172-0.317-0.425-0.207-0.759c-0.414,0.065-0.736,0.11-1.276,0.104c-0.038,0.104,0.019,0.202-0.069,0.311
	c-0.156-0.437-0.478-0.505-0.966-0.207c-0.341,0.337,1.89,1.87,1.483,1.657c1.576-0.223,2.756-2.233,4.626-0.276
	c0.274-0.34,0.594-1.905,0.62-2.451c0.484,0.053,1.231,0.302,1.484,0.691c0,0.058,0,0.113,0,0.173c0.079,0.08,0.11-0.064,0.24-0.033
	c0.087,0.317,1.146,1.176,1.416,1.312c-0.279-0.062,2.053-1.892,2.416-2.105c-0.334-0.501-2.344-0.902-2.417-1.691
	c-0.146,0.005-0.085,0.213-0.241,0.207c-0.078-0.025-0.061-0.146-0.104-0.207c-2.768-0.548-1.434,1.295-2.864-0.896
	C36.903,29.679,32.778,29.194,31.646,29.543C31.556,29.529,31.925,29.457,31.646,29.543z M26.813,31.026
	c-0.139,0.39-0.465,0.594-0.863,0.726c-0.229-0.143-0.336-0.23-0.586-0.311c-0.973,2.127,2.834,1.936,1.898-0.379
	C27.075,31.088,26.983,31.019,26.813,31.026C26.675,31.417,26.983,31.019,26.813,31.026z M20.738,34.376
	c0.42,0.073,0.724,0.204,1.001,0.345c0.021-0.273-0.292-0.214-0.346-0.413c0.183-0.062,0.229-0.18,0.138-0.347
	c0.18,0.129,0.317,0.082,0.414-0.139c0.054,0.107,0.155,0.168,0.312,0.174c1.186-0.408-0.283-1.345-1.14-0.622
	c-0.03-0.028-0.021-0.094-0.069-0.103c-0.08,0.923-1.873,0.596-1.587,2.381c-0.112,0.022-1.354,0.973-1.312,0.932
	c0.176,0.145,0.498-0.046,0.689-0.103c0.68,0.369-2.795,3.882-2.898,4.037c-0.118,0.179-0.068,0.264,0.207,0.347
	c0.552-0.577,2.127-1.95,3.004-2.002c-0.104-1.396,1.539,1.236,1.173,0.517c0.204-0.256,0.388-0.29,0.552-0.104
	c0.127-1.979,4.197,1.297,3.244-1.104c0.684-0.066,1.291-2.979,0.656-3.105c-0.383,0.161-0.774,0.299-1.174,0.415
	c0.188,0.424,0.129,0.745-0.172,0.966c-0.149-0.139-0.272-0.303-0.449-0.414c0.092,0.759-0.149,1.173-0.725,1.242
	c-0.246-0.234-0.361-0.498-0.346-0.793c-0.867-0.012,0.23,0.977,0.275,1.035c-0.147,0.309-0.106,0.729-0.483,0.655
	c-0.083-0.021-0.583-0.748-0.586-0.76c-0.283,0.279-1.626,0.77-1.897,0.76c-0.016-0.065-0.076-0.087-0.07-0.172
	c0.365-0.271,1.107-0.606,1.209-1.141c-0.357-0.166-0.654-0.354-0.656-0.794c0.218,0.121,0.368,0.086,0.447-0.104
	c0.195-0.01,0.172,0.198,0.312,0.241c0.094-0.093-0.025-0.121-0.035-0.207c1.625,0.259,0.071-0.94-0.068-1.52
	c0.113-0.075,0.227-0.093,0.339-0.052L20.738,34.376z M44.933,33.167c-0.262,0.239-0.525,0.274-0.793,0.104
	c-0.16,0.311-1.062,0.482-1.035,0.585c0.104,0.036,0.275,0,0.312,0.104c0,0.104,0,0.208,0,0.312
	c-1.944-0.189-0.909,3.183-0.829,3.796c-0.234,0.347-2.396-4.158-3.554-3.9c-0.013,0.008-0.345,2.068-0.276,2.312
	c0.075,0.227,0.766,1.346,0,1.311c-0.379-0.146-0.527-0.444-0.449-0.896c-0.916-0.08-1.289-0.844-1.863-1.588
	c-0.004,0.042-0.01,0.081-0.068,0.068c-0.287-0.699-2.318,0.277-2.691,0.345c0.315,0.704,4.156,4.43,4.764,4.28
	c0.013,0.048,0.042,0.059,0,0.104c0.928,0,7.334,2.103,6.279-2.278c0.69,0.095,0.738-1.658,0.863-2.105
	c0.051,0.041,0.086,0.041,0.139,0c0.018-0.144-0.101-0.15-0.068-0.311c0.023-0.067,0.205,0.021,0.172-0.104
	c-0.178-0.287-0.132-0.539,0.139-0.759c-0.345-0.304-0.332-0.694,0.035-1.175C45.853,33.033,45.168,33.254,44.933,33.167
	C44.8,33.302,45.168,33.254,44.933,33.167z M17.528,34.79c-0.703,0.684-6.198,2.882-6.18,4.175
	c-0.101,0.011-0.105-0.078-0.207-0.067c-0.601,2.24-1.527,2.256,0.621,4.556c0.142-0.488,0.395-0.673,0.76-0.551
	c0.179-0.487,1.802-2.434,2.416-2.589c0.111-0.03,0.072,0.09,0.139,0.104c0.053-0.098,1.414-2.051,1.656-1.865
	c-0.081-0.186,0.058-0.201,0.07-0.379c-0.399,0.085-2.873,0.312-3.107,0.312c-0.332-0.729,3.988-2.966,4.072-3.693
	C17.662,34.777,17.604,34.87,17.528,34.79C17.097,35.209,17.604,34.87,17.528,34.79z M29.437,36.377
	c0.822,0.32-0.439,1.396,0.967,1.348c-0.016,0.25,0.02,0.49,0.104,0.725c-0.486,0.13-0.646,0.452-0.484,0.967
	c0.312,0.058,0.623,0.046,0.934-0.035c0.162-0.466,0.625-0.646,1.001-0.896c0.302,0.101,0.567,0.03,0.794-0.208
	c-0.104-1.089-1.89-1.071-1.934-1.794C30.353,36.488,29.892,36.454,29.437,36.377C29.837,36.533,29.438,36.103,29.437,36.377z
	 M26.468,36.446c-0.008,0.702-0.584,3.464,0.207,4.247c0.525,0.051,1.262-0.797,1.277-1.243c-0.021-0.061-0.104-0.058-0.139-0.104
	c0.104,0.002,0.033-0.175,0.139-0.174c0.08,0.017,0.093,0.153,0.173,0.069c-0.196-0.188-0.185-0.361,0.034-0.518
	c0.055,0.003,0.027,0.088,0.104,0.067c0.047-0.127,0.164-0.181,0.174-0.346c-0.358-0.268-0.928-1.059-1.553-0.759
	c-0.147-0.314,0.321-0.294,0.346-0.553c0.06-0.004,0.106,0.008,0.139,0.033c0.003-0.299-0.121-0.379-0.104-0.621
	C27.089,36.641,26.704,36.08,26.468,36.446C26.458,37.215,26.704,36.08,26.468,36.446z M37.962,41.658
	c-1.219-2.632-3.049-2.154-4.625-1.932c0.512,0.612,1.375,0.496,1.899,1.104c0.347-0.26,1.069,0.319,1.415,0.312
	c0.203,0.285,0.164,0.724,0.104,1.034c-0.352-0.371-2.846,1.656-1.345,1.656c-0.013,1.159,2.485,0.532,2.416,2.14
	c-0.409,0.254-1.62,0.962-1.657,1.623c0.141,0.103,0.149,0.333,0.274,0.448c1.108-0.902,1.616-1.596,2.417-2.519
	C38.708,44.46,39.861,42.053,37.962,41.658C37.827,41.367,38.353,41.739,37.962,41.658z M28.399,39.347
	c-0.143,1.189,0.261,3.804,0.863,4.83c0.35,0.137,1.119-0.316,1.416-0.274c0.213,0.137,0.235,0.31,0.067,0.519
	c0.749,0.393,0.921,1.082,0.519,2.07c0.065-0.036,1.539-1.103,1.276,0.139c1.681-0.349,0.218-2.312,0.274-2.83
	c-0.271-0.329-0.604-0.57-1-0.727c0.154-0.167,0.062-0.58,0.275-0.689c0.327,0.076,0.604-0.016,0.827-0.275
	c0.056,0.025-0.009,0.17,0.104,0.139c0.154-0.008,0.086-0.232,0.173-0.311c0.21-0.004,0.282,0.131,0.483,0.139
	c-0.004,0.135-2.736-2.139-2.865-2.176c-0.469,2.385-1.245,2.601-1.864,0.001c0.183-0.213,0.172-0.454-0.035-0.726
	C28.685,39.169,28.513,39.227,28.399,39.347C28.354,39.72,28.513,39.227,28.399,39.347z M23.879,40.382
	c-0.091,0.775-1.956,0.112-2.106,0.208c0.021,0.167,0.076,0.358-0.033,0.483c-0.104,0.008-0.118-0.128-0.208-0.034
	c0.33,0.393-0.175,1.635-0.586,1.726c-0.181,0.751-0.546,1.605-0.69,2.415c-0.076-0.075-0.141,0.034-0.275,0
	c-0.51-1.646-0.442-3.473-1.312-4.97c-0.716,0.172-1.816,1.251-2.312,1.656c-4.312-0.94-1.297,4.354-1.207,4.695
	c0.111,0.043,0.025-0.111,0.138-0.068c2.497,2.436,10.925,3.354,8.976-2.451c0.033,0,0.067,0,0.104,0
	c-0.246-0.661,1.062-3.685,0.484-4.313C24.546,39.968,24.399,40.361,23.879,40.382C23.854,40.6,24.399,40.361,23.879,40.382z
	 M25.604,42.762c-0.467,0.569-0.535,1.283-0.207,2.143c0.635,0.172-0.957,8.128,4.66,5.418c-0.023-0.321-0.213-0.479-0.379-0.656
	c0.875-0.382,0.039-3.396-1.175-1.83c-0.485,0.098-0.854,0.102-1.069,0.69c-0.903,0-0.934-2.08,0.068-3.451
	c0.068,0.047,0.004,0.226,0.174,0.174c0.008-0.038-0.123-2.446-0.104-2.384c-0.464-0.219-1.474-1.055-1.761-1.138
	C25.675,42.059,25.606,42.273,25.604,42.762C25.591,42.83,25.606,42.273,25.604,42.762z M34.097,47.043
	c0.082,1.085-0.457,0.402,0.068,2.141c0.643,0.027,1.137-0.202,1.484-0.69c-0.002-0.021-0.793-1.558-0.795-1.621
	C34.538,46.634,34.377,46.964,34.097,47.043C34.113,47.268,34.377,46.964,34.097,47.043z M31.509,48.563
	c-0.627,0.418-1.074,0.699-0.898,1.794c0.941-0.081,3.546-1.396,1.209-2.036C31.823,48.545,31.597,48.505,31.509,48.563
	C31.474,48.585,31.597,48.505,31.509,48.563z"/>
</svg>
