<?xml version="1.0" encoding="utf-8"?>
<!-- Generator: Adobe Illustrator 16.0.4, SVG Export Plug-In . SVG Version: 6.00 Build 0)  -->
<svg version="1.2" baseProfile="tiny" id="Layer_1" xmlns="http://www.w3.org/2000/svg" xmlns:xlink="http://www.w3.org/1999/xlink"
	 x="0px" y="0px" width="54px" height="52.586px" viewBox="0 0 54 52.586" xml:space="preserve">
<g id="Layer_18">
	<path fill="#648C1A" d="M20.454,1.896c0.581,0,0.613,4.532,2.834,4.627c0.102-0.238,0.488-6.827,0.668-6.513
		c0.75,1.313,1.124,3.229,1.777,4.689c0.406-0.393,0.854-4.236,0.982-4.236c0.715,0,1.051,4.773,1.104,5.404
		c1.863,0.605,2.457-4.751,3.543-4.751c0.252,0-1.291,4.783-1.269,4.892c0.396-0.188,0.401-0.108,0.81-0.047
		c0.931-1.13,2.89-2.438,2.961-4.065c0.104,0,0.209,0,0.312,0c0,1.916-1.265,4.292-1.013,6.339c1.571-0.091,2.178-4.803,3.427-4.797
		c-0.354,0.949-1.279,2.357-1.214,3.381c2.537,0.529,2.47-2.163,4.206-2.617l-0.008,0.023c0.031,0.256-0.289,0.625-0.303,0.756
		c0.025,0.074,0.088,0.061,0.092,0.156c0.027,0.455-0.315,1.312-0.279,1.931c0.477-0.22,1.122-1.297,1.589-1.433
		c0.214,0.463-1.159,1.758-1.589,1.808c-0.175,0.687-0.209,0.644-0.266,1.479c0.564,1.188,4.133-2.927,4.005-2.865
		c0.103,0.009,0.141,0.091,0.14,0.156c-0.004,0.377-0.589,0.737-0.607,1.09c-0.312-0.262-2.936,3.477-2.976,4.174
		c1.015,0.257,4.744-1.801,4.735-1.807c0.254,2.477-4.313,2.31-5.25,2.896c-0.059,0.311-0.11,0.622-0.156,0.936
		c1.867,0.164,5.739-3.502,6.995-2.883c-0.526,0.872-1.94,0.993-2.321,2.15c0.409,0.453,3.182-1.143,3.506-1.309
		c0.012,0.096,0.074,0.131,0.187,0.108c-0.136,0.229-0.851,1.597-1.323,1.636c-0.572,0.049-1.09,0.086-1.322,0.903
		c0.864,1.202,1.129-0.392,1.711-0.265c0.767,0.166-2.123,0.771-1.961,0.731c-0.715,1.191-1.109,1.787,0.016,2.586
		c0.373-0.294,2.699-2.478,2.787-2.149c-0.072,0.414-1.151,0.762-1.308,1.279c0.702,0.758,3.4-1.166,4.252-0.92
		c0.048,0.354-1.325,0.639-1.512,0.903c0.618,0.735,1.507-0.202,1.962-0.017c0.003,0.516-4.951,1.685-4.3,4.129
		c1.563,0.447,3.062-2.164,4.657-1.901c-0.037,0.051-0.021,0.155-0.078,0.187c-0.088,0.016-0.081-0.063-0.172-0.047
		c-0.043,0.051-0.02,0.168-0.094,0.188c-0.115-0.003-0.154-0.015-0.248-0.017c-0.598,0.279-4.261,2.25-4.158,2.741
		c0.346,1.582,5.746-2.174,5.812-2.165c0.626,0.609-0.616,0.635-0.67,1.199c0.244,0.367,2.828,1.572,2.835,1.559
		c0.622-0.861-7.045,0.674-6.714,0.67c0.413,0.619,3.313,0.992,3.317,1.449c-0.592-0.009-1.283-0.133-1.885-0.048
		c0.201,0.78,2.207,1.039,2.18,1.449c-0.321,0.427-1.42-0.323-1.838-0.39c0.186,0.875,1.041,1.057,1.186,1.541
		c-0.081,0.348,1.822,0.896,1.916,1.386c-1.523,0.432-3.979-2.812-4.751-3.333c-0.449-0.182-1.347-0.979-1.713-1.075
		c-0.046,0.144,1.971,3.952,2.228,3.988c0.038,0.008-0.044-0.076,0.03-0.062c0.702,0.658,2.383,0.611,3.005,1.433l-0.023,0.019
		l0.01,0.028c-0.396,0.056-0.881-0.46-1.153-0.544c0.043,0.06-1.065-0.376-1.104-0.374c-0.062,0.035,0.024,0.171-0.078,0.188
		c-0.237-0.074-0.456-0.251-0.732-0.232c0.087,0.074,0.057,0.201,0.062,0.373c-0.031,0.041-0.127,0.02-0.172,0.047
		c0.517,1.354,2.926,2.343,3.271,3.566c-2.105,2.11-6.766-5.283-3.723,2.12c0.16-0.002,0.296,0.056,0.404,0.171
		c0.006,0.06-0.062,0.041-0.048,0.109c0.14-0.002,0.492,0.304,0.546,0.404c0.024,0.076-0.046,0.06-0.047,0.108
		c0.055,0.046,0.18-0.014,0.219,0.017c-0.002,0.062-0.004,0.128,0.016,0.171c0.085,0.013,1.046,0.478,0.951,0.639
		c0.055,0.052,0.055-0.049,0.123-0.03c-0.053,0.217,0.343,0.232,0.42,0.327c0.111,0.196,0.878,0.3,0.889,0.562
		c-0.395,0.021-1.518-0.493-1.76-0.731c-0.188,0.103-0.35,0.087-0.481-0.047c-0.012,0.058,0.064,0.06,0.015,0.108
		c-0.219-0.029-0.767-0.242-0.996-0.201c0.029,0.678,1.549,1.52,1.947,1.963c-0.025,0.048-0.037,0.107-0.078,0.14
		c-1.119-0.582-1.596-0.602-2.258-1.495c-0.271-0.354-0.764,0.008-1.061-0.016c0.002-0.059,0.023-0.051-0.016-0.078
		c-0.229,0.184-0.474,0.344-0.731,0.482c0.271,0.197,1.512,1.315,1.51,1.729c0.021-0.021,0.069-0.041,0.093-0.016
		c-0.01,0.326,0.244,0.352,0.358,0.605c0.106,0.235,1.187,0.562,0.998,1.028c-0.968,0.108-3.847-2.528-5.157-2.851
		c-0.056,0.265-0.363,1.641-0.343,1.775c0.112,0.223,1.084,0.87,1.09,1.215c0.013,0.069-0.079,0.035-0.047,0.125
		c0.242,0.213,0.729,0.756,1.044,0.936c-0.01,0.016-0.036,0.016-0.031,0.047c0.076,0.143,0.176,0.266,0.297,0.373
		c-0.041,0-0.093-0.01-0.094,0.029c0.061,0.088,0.167,0.205,0.172,0.298c-0.24-0.031-0.359-0.142-0.359-0.327
		c-0.129,0.01-0.2-0.053-0.217-0.188c-0.021,0.039,0.045,0.063,0,0.077c-0.108-0.135-0.926-1.132-1.045-1.151
		c-0.047,0.25-2.266-1.668-1.229-0.937c-0.038,0.144-0.257,1.19-0.421,1.229c2.527-0.625-1.969-3.62-2.01-3.645
		c0.055,0.199,1.045,2.309,0.795,2.367c0.086-0.021-2.994-4.407-4.065-2.958c0.976,0.758,7.833,6.731,7.946,6.354
		c-0.459,0.244-1.446-1.024-2.244-0.67c0.154,0.242,1.337,1.729,0.997,1.822c-0.552,0.15-2.162-1.99-2.772-2.166
		c0.227,0.544-0.049,3.867-0.172,3.973c-0.619-0.465-0.79-2.929-0.699-3.754c-0.512,0.104-0.681,3.477-1.201,3.239
		c-0.926-0.426,0.998-3.973,0.47-4.112c-2.776-0.724-1.851,6.58-1.916,7.26l-0.028-0.008l-0.02,0.022
		c-0.033-0.022-0.029-0.082-0.077-0.093c-0.181,0.177,0.325,0.55,0.016,0.748c-0.858-0.905-2.409-4.322-3.971-4.44
		c-0.076,0.396-0.353,0.761-0.515,1.12c0.609,0.419,0.885,0.975,0.826,1.667c-0.029,0.028-0.013,0.028-0.062,0.017
		c-0.007,0.515,0.628,2.316,0.047,2.461c-0.364-0.19-0.287-1.215-0.437-1.559c-0.098,0.032-0.103-0.031-0.155-0.016
		c-0.108,0.375-0.421,2.281-0.89,2.29c-0.342,0.006-0.269-3.438-0.389-3.722c-0.5,0.023-0.558,1.717-1.168,1.619
		c-0.475-0.472,0.993-2.682,1.044-3.238c-0.579,0.24-1.624,2.959-2.243,2.928c-0.065-0.003-0.136-0.073-0.188-0.141
		c0.132-1.07,2.191-2.601,2.134-3.475c-0.665,0.085-3.034,2.411-2.788,2.587c-0.188-0.134,0.262-1.444,0.297-1.714
		c-0.099-0.04-1.277-0.634-1.169-0.811c-0.018-0.033,0.499,2.396,0.374,2.633c-0.376,0.203-0.547-0.555-0.639-0.653
		c-0.88,0.666-1.573,3.954-1.199,5.108c-0.078,0.123-0.227,0.149-0.296-0.016c-0.422-0.99,0.593-4.428-0.919-4.75
		c-0.781,0.618-1.366,4.137-1.932,4.268c-0.016,0.004-0.437-3.922-0.437-4.159c-0.045-0.031-0.087-0.068-0.142-0.062
		c-1.939,0.2,0.273,4.709-0.575,5.328c-0.32-0.021-0.685-3.468-0.888-4.064c-0.942,0.701-0.767,2.982-1.435,3.908l-0.007-0.022
		l-0.023,0.007c-0.555-0.419,1.004-4.068,1.168-4.564c-0.141-0.063-0.232-0.172-0.28-0.325c-1.177,0.464-1.437,1.987-2.634,2.399
		l0.009-0.028l-0.023-0.019c0.427-0.537,0.769-1.123,1.028-1.761c-0.448,0.112-0.874,0.276-1.278,0.498
		c-0.19-0.308,1.646-1.787,2.041-1.292c-0.009,0.1-0.112,0.188-0.077,0.279c0.332-0.243,0.508-0.332,0.778-0.607
		c0.351-0.082,0.577-0.513,1.013-0.654c0.231-0.51,0.612-1.839,0.514-2.367c-0.832,0.42-2.154,2.07-2.756,2.242
		c-0.146-0.26,3.664-6.515,3.986-7.539c-1.434,0.707-4.263,1.971-5.438,3.192c0.171,0.452,2.916,1.417,2.525,1.838
		c-0.346,0.148-1.71-0.339-2.104-0.437c0.058,0.1,0.134,2.681,0.062,2.695c-0.416,0.082-0.738-2.728-1.123-3.068
		c-1.449-0.648-3.248,3.879-4.439,3.8c0.004-1.13,2.369-1.995,1.916-3.256c-0.34-0.161-2.651,1.522-2.695,1.184
		c-0.203-1.508,3.321-2.56,4.393-2.524c-0.307-0.646-1.643-1.336-2.305-1.323c-1.365,0.03-3.013,3.879-4.236,3.661
		c-0.072-0.485,3.851-4.461,2.164-4.969c-0.131,0.184-2.275,2.49-2.726,2.459c0.856,0.052,2.843-3.739,3.007-4.674
		c-1.38,0.957-2.162,3.793-3.925,4.159c-0.323-0.106,1.331-1.627,1.417-1.885c-0.211-0.278-3.109,0.884-3.178,0.903
		c0.033,0.057,3.744-2.592,4.268-2.99c0.062-0.012,0.055,0.05,0.124,0.031c0.373-0.399,1.374-1.409,1.433-1.887
		c-2.405-0.301-5.692,2.18-8.239,3.334c-0.048-0.037-0.079-0.089-0.078-0.172c0.671-0.588,1.581-1,1.962-1.761
		c0.611,0.093,2.105-1.907,1.885-2.29c-0.367,0.014-0.765-0.034-1.09-0.016c-0.455-0.213-0.643,0.209-0.98,0.156
		c-0.09-0.193-0.213-0.462,0-0.576c0.869-0.47,3.361-2.121,4.144-2.291C6.39,31.621,3.13,33.23,0.052,33.23
		c-0.055-0.093-0.082-0.343,0-0.451c0.682,0.104,1.71,0.269,2.336-0.219c-0.253-0.198-1.076-1.064-1.246-1.261
		c0.029-0.032,0.117-0.008,0.125-0.062c-0.056-0.066-0.121-0.111-0.109-0.188c-0.032,0.233,3.619,1.525,4.547,0.639
		c-0.051,0.007-3.028-1.082-2.866-0.654c0.187-0.615,1.444-0.254,1.886-0.497c-0.41-0.132-1.316-0.751-1.543-1.122
		c0.174-0.046,0.282-0.164,0.328-0.357c1.014-0.096,3.732,1.697,5.482,1.697c-0.063-0.203-0.469-0.201-0.467-0.436
		c-0.072-0.018-0.572-0.12-0.623-0.28l0.006-0.022l-0.022-0.008c-0.021-0.039,0.045-0.065,0-0.078
		c-0.122,0.445-2.392-0.254-2.321-0.469c0.264-0.396,1.066,0.008,1.401-0.031c-0.003-0.086-0.077-0.006-0.108-0.062
		c-0.033-0.132,0.022-0.212,0.03-0.342c-0.997-1.062-3.642-0.735-4.595-1.838c1.391-0.457,3.992,1.034,5.234-0.124
		c-0.012-1.477-2.84-0.73-3.146-1.372c0.088-0.011,0.15-0.047,0.266-0.031c-0.15-0.157-0.604-0.102-0.826-0.108
		c0.029-0.031,0.057-0.025,0.031-0.078c-0.228-0.043-0.451-0.1-0.67-0.172c0.604,0.022,2.645,0.291,3.162-0.25
		c0.034-0.11-0.273-0.223-0.203-0.451c-0.408-0.663-1.861,0.025-2.32-0.436c0.021-0.057,0.125-0.031,0.172-0.062
		c0.046-0.014-0.081-0.061-0.016-0.094c0.768-0.004,2.191,0.076,2.709,0.764c-0.07,0.005-0.089,0.02-0.156,0
		c0.015,0.089,0.058,0.199,0.142,0.171c0.062-0.019-0.021-0.112,0.046-0.142c0.044,0.004,0.043,0.052,0.078,0.062
		c0.176-0.22,1.061-0.418,1.061-0.841c0.246-0.052,0.81-0.474,0.918-0.731c-1.006-0.812-2.467-1.854-3.349-2.742
		c0.289-0.174,1.608,0.414,1.886,0.482c0.653,0.395,1.351,0.932,1.946,1.293c-0.135,0.085-0.474-1.482-0.53-1.589
		c-0.039-0.042-0.016,0.036-0.078,0.017c-0.449-1.392-1.808-1.469-2.461-2.556c0.022-0.009,0.028-0.024,0.017-0.046
		c1.249,0.447,4.405,1.788,4.751,0.902c-0.031-0.037-0.074,0.026-0.109-0.016c-0.074-0.99-1.66-1.434-1.822-2.289
		c0.338,0.24,0.598,0.24,0.779,0c0.082,0.049,0.417,1.016,0.654,0.965c-0.034-0.266-0.082-0.58-0.094-0.778c0.025,0,0.052,0,0.078,0
		c-0.074-0.108-0.047-0.173-0.017-0.312c-0.491-0.212-3.366-3.268-3.598-3.787c0.438-0.488,2.059,0.982,2.554,0.64
		c0.225-0.999-0.721-1.281-0.764-2.041c0.529-0.191,2.348,2.345,3.271,2.461c0.066,0.353,0.331,0.44,0.795,0.265
		c0.598-0.555-2.41-1.98-2.385-2.337c0.025-0.335,3.812,2.377,4.004,2.274c-0.371-2.34-3.765-3.062-4.703-4.532
		c0-0.446-0.701-0.371-0.687-0.903c0.353-0.072,0.644,0.047,0.872,0.358c0.002,0.028-0.02,0.032-0.016,0.062
		c0.238,0.189,0.504,0.334,0.795,0.437c1.52-1.167-0.537-1.802-0.25-2.835c1.334-0.405,0.866,2.672,0.935,2.928
		c1.362,1.062,2.353,3.241,3.894,4.003c0.051-1.425-2.816-3.192-2.647-3.862c0.021-0.006,0.024-0.027,0.047-0.031
		c0.415,0.027,1.13,0.676,1.511,0.841c0.141,0.292,0.51,0.328,0.811,0.389c1.215-1.483-0.285-2.378-0.42-3.957
		c0.062,0.033,0.099,0.089,0.156,0.125c-0.093-0.103-0.117-0.217-0.078-0.343c-0.039-0.061-0.135,0.014-0.156-0.046
		c0.029-0.222-0.381-0.759-0.514-0.919c-0.106-0.1-0.449-0.649-0.404-0.826c0.445,0.4,0.439,0.689,0.902,1.014
		c0-0.031,0-0.062,0-0.094l0.028,0.007l0.019-0.022c0.06,0.193,0.168,0.359,0.328,0.498c0.014-0.027,0-0.084,0.047-0.078
		c0.228,0.564,0.922,1.773,1.479,2.117c0.134-0.432,0.071-0.811-0.187-1.137c0.004-0.057,0.109-0.014,0.108-0.078
		c-0.153-0.55-0.521-1.309-0.81-1.885c0.026-0.003,0.078,0.016,0.062-0.031c-0.071-0.523-0.687-1.351-0.53-1.932
		c0.059-0.006,0.041,0.062,0.109,0.047c-0.012-0.08,0.011-0.124,0.078-0.125c0.095,0.235,0.204,0.463,0.326,0.686
		c0.018-0.065-0.036-0.202,0.031-0.217c0.961,1.399,1.928,5.106,3.584,5.811c0.035-0.871-0.641-2.549-0.266-3.412
		c0.32-0.088,0.378,1.941,0.717,2.041c0.115-0.803-0.301-3.184,0.031-3.77c1.232,0.461,0.066,3.504,1.075,4.112
		C20.776,6.814,21.11,3.509,20.454,1.896C20.528,1.896,20.515,2.048,20.454,1.896z M26.622,4.824
		c-0.875,1.299-0.286,2.378-0.016,3.646c0.836-0.303,0.289-3.877,0.218-4.58c-0.021,0-0.021-0.021-0.048-0.016
		C26.862,4.216,26.601,4.447,26.622,4.824C26.574,4.896,26.601,4.447,26.622,4.824z M32.79,4.544
		c-1.568,0.482-1.798,2.74-0.529,3.801c0.27-0.561,1.121-3.306,0.951-3.926C33.038,4.44,32.953,4.495,32.79,4.544
		C32.677,4.579,32.953,4.495,32.79,4.544z M24.628,5.12c-0.137,0.919,0.443,4.375,1.775,4.534c0.14-0.272-1.586-4.885-1.729-4.86
		C24.612,4.894,24.646,5.009,24.628,5.12C24.614,5.212,24.646,5.009,24.628,5.12z M29.909,5.292
		c-0.619,1.525-2.014,1.615-2.135,3.536c0.886-0.086,1.217-1.512,1.543-1.558c-1.815-0.312-2.998,7.597,0.436,8.1
		c2.344-3.473,0.479-6.814,0.234-10.033C29.957,5.326,29.924,5.319,29.909,5.292C29.872,5.382,29.924,5.319,29.909,5.292z
		 M38.367,6.601c-1.597,1.171-6.487,2.971-6.4,5.467c0.864-0.557,1.356-0.58,2.025-1.246c0.026-0.029,0.045,0.018,0.077-0.016
		c0.014-0.057-0.034-0.075,0-0.109c0.316,0.074,0.352-1.118,0.888-1.122c0.04,0.13-0.446,0.902-0.481,1.091
		c-0.217,0.086-0.326,0.264-0.328,0.53c0.025,0.062,0.125,0.05,0.141,0.125c-0.229,0.104-0.348,0.281-0.357,0.528
		c0.248-0.006,2.129-1.633,2.289-1.34c-0.089,0.18-0.197,0.346-0.326,0.5c-0.01-0.027,0.02-0.092-0.017-0.094
		c-0.013,0.023-0.05,0.023-0.078,0.031c-0.006,0.053,0.069,0.025,0.048,0.093c-0.051,0.032-0.1,0.091-0.156,0.031
		c-0.265,0.267-0.981,0.521-1.199,0.716c-0.047,0.027,0.009,0.083,0,0.125c-0.086,0.014-0.107,0.09-0.202,0.094
		c-0.019-0.019-0.019-0.056-0.017-0.094c-0.058,0.02-0.119,0.036-0.155,0.078c0.015,0.071,0.075,0,0.077,0.078
		c-0.644,1.35-2.895,0.82-2.928,2.943c0.492-0.121,1.267-0.681,1.789-0.297c0.051-0.058-0.057-0.058-0.029-0.14
		c0.102-0.063,0.293-0.114,0.436-0.047c0.003-0.022-0.005-0.058,0.018-0.062c0.291-0.182,0.941-0.062,1.229-0.141
		c3.185-1.521,1.423-2.465,1.104-5.031c0.104,0.03,0.164-0.012,0.188-0.125c1.055,0.099,1.668,1.254,2.586,1.682
		c0.209-0.891-0.341-1.325-0.576-2.025c0.014-0.033,0.047-0.046,0.047-0.094c-0.555-0.4,0.981-1.922,0.701-2.555
		C38.672,6.363,38.507,6.498,38.367,6.601C38.258,6.681,38.507,6.498,38.367,6.601z M21.466,7.505
		c-0.263,1.023-0.195,2.209-0.326,3.256c0.494-0.431,1.264-3.896,0.527-3.739C21.672,7.183,21.513,7.323,21.466,7.505
		C21.418,7.69,21.513,7.323,21.466,7.505z M23.289,7.925c-0.007-0.149-0.899-0.777-0.888-0.778c0-0.062,0.276,1.591,0.373,1.651
		C23.039,8.667,23.303,8.203,23.289,7.925C23.284,7.827,23.293,8.003,23.289,7.925z M19.847,8.3
		c-0.156,0.631-0.212,2.774,0.342,3.177c0.028-0.447,0.613-3.099-0.28-3.396C19.854,8.169,19.866,8.216,19.847,8.3
		C19.824,8.39,19.866,8.216,19.847,8.3z M23.304,9.546c0.17,0.281,1.336,0.664,1.745,0.7c0.033-0.401-0.901-1.563-1.215-1.745
		C23.748,8.94,23.485,9.202,23.304,9.546C23.349,9.619,23.485,9.202,23.304,9.546z M17.338,9.731c0,2.496-2.22,6.725,1.899,7.665
		c-0.057-0.82,1.215-8.402-1.885-7.835C17.315,9.619,17.36,9.675,17.338,9.731C17.338,9.773,17.36,9.675,17.338,9.731z
		 M26.888,21.617c0.99-2.694,1.432-9.631-2.82-10.405c-4.78-0.892-3.537,9.588,0.578,11.479c0.416-0.863-0.459-6.247,0.357-6.417
		c0.296-0.062,0.494,0.705,0.499,0.855c0.045,0.053,0.037-0.062,0.078-0.016c-0.029,0.098-0.009,0.156,0.062,0.188
		c-0.019,0.043-0.117,0.008-0.108,0.078c0.089,0.08,0.161,0.174,0.218,0.28c-0.094-0.022,0.139,0.894,0.093,0.966
		c0.046,0.002,0.091-0.065,0.109,0c-0.038,0.211,0.261,0.631,0.125,0.872c0.021,0.044,0.032-0.049,0.077-0.03
		c0.012,0.108,0.115,0.207,0.062,0.326c-0.037-0.037-0.125-0.181-0.203-0.078c-0.08,0.094,0.279,0.293,0.281,0.297
		c0.045,0.156,0.068,0.473,0.125,0.623c0.014,0.049-0.023,0.047-0.031,0.078c0.104,0.056,0.141,0.154,0.11,0.295
		c-0.058,0.022-0.134,0.022-0.142,0.094c0.074,0.154,0.306,0.878,0.358,0.951C26.915,21.985,26.821,21.796,26.888,21.617
		C26.894,21.601,26.821,21.796,26.888,21.617z M42.838,13.376c-0.884,0.26-2.661,0.622-3.364,1.231
		c0.565,0.173,2.754-0.429,2.805-0.233c-0.026,0.532-0.643,1.643-0.062,2.29c0.346-0.696,1.391-2.396,1.246-3.286
		C43.257,13.29,43.022,13.321,42.838,13.376C42.485,13.48,43.022,13.321,42.838,13.376z M8.958,14.015
		c0.045,0.344,1.316,1.701,1.496,1.714c0.374,0.587,0.562,2.864,1.34,2.835c-0.006,0.124,0.704,1.105,0.701,1.105
		c0.038-0.02-0.008-0.123,0.031-0.141c0.242-0.1,0.883-0.034,1.121,0.078c-0.022-0.094,0.094-0.094,0.109-0.094
		c0.592-0.015,0.904,0.113,1.573-0.077c0.053,0.01,0.024,0.1,0.094,0.093c0.071-0.042,0.106-0.122,0.187-0.156
		c0.101,0.008,0.039,0.115,0.109,0.124c0.439,0.072,1.939-0.308,2.43-0.405c-0.95-4.063-6.27-4.471-9.438-5.232
		C8.733,13.97,8.856,13.981,8.958,14.015C8.967,14.089,8.856,13.981,8.958,14.015z M38.478,15.199
		c-2.345,0.744-5.32,1.39-7.806,2.072c-0.603,1.202-0.88,4.575-0.903,6.028c1.922-0.139,5.756-5.353,7.275-4.938
		c0.13,0.721-5.632,6.484-5.938,6.402c6.271-1.53,8.172-2.786,9.783-9.019c-0.356-0.083-0.699-0.047-1.029,0.109
		c0.012-0.125,0.162-0.109,0.188-0.218c-0.354-0.103-1.202-0.623-1.495-0.607C38.562,15.095,38.54,15.179,38.478,15.199
		C38.412,15.22,38.54,15.179,38.478,15.199z M45.579,17.146c-3.546,1.724-3.737,2.837-5.344,5.997c2.455,0.34,6.363-3.719,6.218-6.2
		C46.175,16.911,45.704,16.897,45.579,17.146C45.269,17.298,45.704,16.897,45.579,17.146z M9.207,20.136
		c-0.022,0.009-0.081-0.018-0.078,0.017c0.052-0.013,0.08,0,0.085,0.039l0.008-0.022c2.156,2.07,7.036,11.387,12.15,7.182
		c0.22-0.086,0.712-0.43,1.027-0.233c0.008-0.11,0.076-0.157,0.203-0.141c-0.519-1.124-7.399-2.489-7.431-3.662
		c0.103-0.345,6.786,1.255,7.353,1.231c-0.375-4.23-9.463-1.473-11.448-2.416c0.017,0.168-0.12,0.202-0.218,0.188
		c-0.146-0.023-0.221-0.255-0.266-0.357c0.229-0.24,1.094-0.66,1.418-0.826c-0.881-0.17-1.811-1.185-2.789-0.981v-0.017H9.207
		L9.207,20.136z M10.032,24.437c-0.91-0.438-1.586,0.936-2.196,1.074c-0.129,0.009-0.217,0.086-0.265,0.233
		c0.003,0.06,0.064,0.06,0.062,0.125c-0.092-0.022-0.164-0.065-0.265-0.077c-0.344,1.582,4.197,1.434,4.688,1.385
		c0.239,0.074,1.049,0.248,1.262,0.078c-0.609-0.406-0.726-0.514-0.98-0.966c-0.087,0-0.124,0.052-0.202,0.062
		c-0.024-0.349-1.069-1.07-1.262-1.339c0.001-0.025,0.04-0.014,0.03-0.047c-0.174-0.144-0.73-0.832-0.918-0.951
		C9.927,24.16,10.131,24.304,10.032,24.437C9.989,24.417,10.131,24.304,10.032,24.437z M44.022,24.171
		c-0.635,0.502-2.681,0.91-3.582,1.028c0.004,0.536,3.674,5.526,4.594,5.687c0.322-0.24,0.515-0.537,0.576-0.89
		c0.668,0.062,1.396,0.069,2.088,0.14c-0.456-0.571-1.209-2.651-1.215-3.207c-0.866-0.807-1.537-1.932-2.274-2.914
		C44.149,24.108,44.106,24.105,44.022,24.171C43.972,24.212,44.106,24.105,44.022,24.171z M4.783,25.636
		c0.003,0.019,0,0.037-0.009,0.055c0.093-0.033,0.188-0.046,0.289-0.039C4.89,25.655,4.853,25.714,4.783,25.636z M40.034,28.611
		c-1.311,0.341-5.077-4.59-7.805-1.028c0.369,0.348,1.274,0.73,1.744,0.997c1.338,0.906,3.021,2.132,4.473,2.774
		c-0.061,0.105-0.191-0.016-0.28,0.029c-1.968-0.683-4.457-0.596-6.59-0.936c0.026,0.182,0.38,0.701,0.437,0.965
		c2.807,1.857,5.272,5.893,9.486,4.237c0.035,0.046,0.107-0.005,0.109,0.094c0.09-0.147,0.199-0.179,0.326-0.094
		c0.006,0.038-0.027,0.034-0.016,0.078c-0.029,0.002,0.645-0.234,0.639-0.233c0.08,0.092,0.075,0.195-0.016,0.312
		c0.084,0.017,0.115-0.021,0.171-0.031c-0.002-0.085-0.001-0.168,0.017-0.232c0.158-0.164,0.396-0.012,0.576-0.094
		c-0.371-1.966-2.58-4.431-3.082-6.729c-0.041-0.041-0.033,0.047-0.078,0.048C40.117,28.704,40.071,28.662,40.034,28.611
		C39.963,28.63,40.071,28.662,40.034,28.611z M13.226,28.813c-1.08-0.342-2.295-0.455-3.41-0.748c0.022-0.5-3.008-0.15-3.35,0.031
		c0.902,4.231,6.998,0.55,8.1,1.541c0.227-0.11,0.33-0.287,0.312-0.528c0.145,0.026-0.706-0.076-0.467-0.108
		c-0.213,0.317-0.871-0.248-1.105-0.234C13.25,28.755,13.284,28.83,13.226,28.813C13.142,28.787,13.284,28.83,13.226,28.813z
		 M7.149,29.298c0.037-0.006,0.064-0.02,0.095-0.031c-0.026-0.073-0.067-0.131-0.142-0.156C7.101,29.191,7.142,29.228,7.149,29.298
		C7.187,29.292,7.142,29.228,7.149,29.298z M7.649,29.562C7.751,29.612,7.712,29.517,7.649,29.562L7.649,29.562z M7.836,29.624
		c0.026,0.062,0.019,0.157,0.047,0.219c0.013-0.082,0.13-0.059,0.093-0.188C7.937,29.626,7.89,29.597,7.836,29.624
		C7.862,29.686,7.89,29.597,7.836,29.624z M17.728,35.511c0.012-0.08-0.033-0.133-0.14-0.155c0.015-0.156,0.097-0.224,0.249-0.202
		c0.033,0.005-0.023,0.042,0.031,0.047c0.15-0.038,0.107-0.213,0.125-0.357c0.044-0.015,0.041,0.021,0.078,0.017
		c0.025-0.054-0.066-0.067-0.016-0.095c0.049,0.02,0.098,0.039,0.141,0.062c0.021-0.016,0.777-0.945,0.763-0.919
		c0.022-0.06-0.069-0.003-0.046-0.062c-0.006-0.053,0.064-0.028,0.062-0.08c-0.017-0.036-0.07,0.031-0.062-0.047
		c0.1-0.051,0.128-0.027,0.249-0.016c0.04-0.044-0.041-0.062-0.048-0.109c0.064-0.145,0.164-0.19,0.297-0.14
		c0.02-0.077-0.038-0.075-0.031-0.141c0.193,0.05,0.303-0.043,0.328-0.28c0.148-0.02,0.717-0.642,0.717-0.855
		c0.043-0.024,0.066,0.018,0.109-0.017c-0.002-0.106-0.086-0.239,0.047-0.265c0.048,0.004,0.025,0.078,0.031,0.124
		c0.137-0.009,0.537-0.499,0.514-0.623c0.238-0.009,1.034-1.166,1.23-1.388c-1.385-0.017-3.193-0.103-4.502,0.47
		c-0.24,1.13-7.283,8.008-5.453,9.875c2.668-0.538,14.054-1.838,11.684-8.599c-0.214,0.414-4.311,3.062-5,3.191
		c-0.113-0.057-0.693,0.244-0.811,0.312c0.006,0.058,0.069,0.057,0.047,0.141c-0.191,0.018-0.377,0.061-0.561,0.124l-0.008-0.022
		L17.728,35.511z M42.121,31.167c0.004,0.644,1.487,4.305,2.024,3.238c0.474-0.943-0.725-3.629-1.963-3.629
		C42.233,30.944,42.121,31.04,42.121,31.167C42.121,31.255,42.121,31.04,42.121,31.167z M13.553,31.089
		c-2.593,0.86-5.627,2.83-6.651,5.516c1.375,0.182,2.097-2.651,3.412-1.947c-0.045,0.096-0.201,0.081-0.233,0.188
		c0.616-0.17,4.567-3.711,4.205-3.832C14.028,31.05,13.825,31.169,13.553,31.089C13.353,31.154,13.825,31.169,13.553,31.089z
		 M32.853,37.443c0.321-2.265-1.389-4.372-3.363-5.42c-1.365,1.417,1.438,6.679,0.686,8.552c-0.576-0.132-2.697-5.695-2.787-6.479
		c-0.057-0.051-0.068,0.062-0.109,0.016c-0.004-0.407-0.283-1.223-0.514-1.525c-0.873,1.758-0.802,3.277-1.154,4.953
		c0.324,0.162,0.388,0.475,0.188,0.936c0.032,0.048,0.097-0.006,0.14,0.047C27.36,46.962,31.875,44.483,32.853,37.443
		C32.856,37.415,32.847,37.498,32.853,37.443z M46.358,34.281c-0.418-0.413-0.859-0.797-1.324-1.151
		c-0.081,0.069-0.174,0.075-0.28,0.015c-0.128,2.181,1.312,0.849,2.212,1.84c-0.188-0.168-0.338-0.364-0.451-0.593
		c0.049,0.007,0.049-0.033,0.047-0.078C46.503,34.292,46.44,34.277,46.358,34.281C46.053,33.984,46.44,34.277,46.358,34.281z
		 M35.345,38.425c-1.898,0.352-2.719,8.785,0.95,7.804c0.629-2.609,2.154-6.767-0.872-8.036
		C35.396,38.268,35.37,38.345,35.345,38.425C35.263,38.44,35.37,38.345,35.345,38.425z M22.463,38.565
		c0.088,0.041,0.192-0.023,0.296-0.018c0.018-0.06,0.049-0.107,0.062-0.17C22.635,38.376,22.569,38.489,22.463,38.565
		C22.551,38.606,22.569,38.489,22.463,38.565z M24.208,39.749c-0.458,2.79-0.805,2.982-0.219,5.156
		c-0.04,0.068-0.063,0.154-0.139,0.188c-0.445,0.008-0.767-0.241-1.152-0.342c-0.28,0.953,0,2.571,0.451,3.567
		c0.436-0.716,4.129-9.278,1.137-8.739C24.269,39.644,24.261,39.718,24.208,39.749C24.151,40.087,24.261,39.718,24.208,39.749z
		 M16.638,41.618c0.086,0.078,0.209,0.122,0.326,0.171c0.016-0.067,0.042-0.122,0.046-0.202
		C16.884,41.593,16.699,41.539,16.638,41.618C16.726,41.696,16.699,41.539,16.638,41.618z M26.481,45.169
		c-1.242,1.264-0.957,0.668-0.561,1.933c1.066-0.207,0.499-1.396,0.607-1.931C26.513,45.169,26.497,45.169,26.481,45.169
		C26.165,45.491,26.497,45.169,26.481,45.169z M31.888,47.288c0.191,0.085-0.013,1.247,0.141,1.434
		c0.373-0.01,0.482-0.834,0.451-1.09c-0.033-0.019-0.102-0.004-0.108-0.047c-0.033-0.262,0.17-0.748-0.405-0.748
		C31.933,46.979,31.953,47.177,31.888,47.288C32.081,47.374,31.953,47.177,31.888,47.288z"/>
</g>
</svg>
