<?xml version="1.0" encoding="utf-8"?>
<!-- Generator: Adobe Illustrator 16.0.4, SVG Export Plug-In . SVG Version: 6.00 Build 0)  -->
<svg version="1.2" baseProfile="tiny" id="Layer_1" xmlns="http://www.w3.org/2000/svg" xmlns:xlink="http://www.w3.org/1999/xlink"
	 x="0px" y="0px" width="54px" height="58.886px" viewBox="0 0 54 58.886" xml:space="preserve">
<g id="Layer_17">
	<path fill="#2E84C1" d="M34.5,7.655c0.021,0.029,0.018,0.082,0.029,0.121c0.037,0.015,0.021-0.027,0.051-0.021
		c0.089,0.147,0.109,0.295,0.061,0.44c0.016,0.019,0.045,0.023,0.079,0.021c0.054,0.274,0.093,0.639,0.071,0.922
		c-0.004,0.018,0.037,0,0.029-0.02c0.783,1.225,0.515,4.824,0.771,6.216c-0.007,0.022-0.042,0.019-0.062,0.03
		c0.105,0.406,0.26,0.941,0.23,1.363c0.133-0.051,0.428-0.385,0.521-0.51c0.011,0.002,0.006,0.02,0.02,0.02
		c0.602-1.133,0.652-1.938,0.923-3.219c-0.11-0.152-0.116-0.326-0.021-0.521c0.02-0.02,0.037-0.003,0.061,0
		c0.049-0.08-0.011-0.133,0.051-0.182c-0.008-0.037-0.029,0.004-0.051-0.02c0.137-0.208,0.062-1,0-1.225l0.018,0.006
		c0.004-0.014,0.013-0.018,0.022-0.016c0.05-0.125,0.013-0.424-0.021-0.531c-0.004,0,0.113-0.51,0.121-0.59
		c-0.017-0.069-0.098-0.071-0.111-0.142c0.01-0.026,0.05-0.022,0.07-0.04c0.01-0.175,0.047-0.275,0-0.471
		c0.02-0.034,0.035,0.018,0.061,0.01c0.025-0.01-0.027-0.025-0.029-0.039c-0.014-0.074,0.064-0.283,0.069-0.342
		c-0.011-0.025-0.04-0.033-0.05-0.061c0.012-0.074,0.059-0.115,0.09-0.17c0.191,0.01,0.408,1.139,0.371,1.184
		c0.003,0.014,0.029,0.014,0.029,0c-0.018,0.044,0.039,0.109-0.01,0.141c0.155,0.817,0.596,2.373,0.45,3.207
		c-0.05,0.006-0.06-0.002-0.09,0.01c-0.019,0.183,0.263,0.656,0.142,0.842c0.213-0.075,0.309-0.334,0.5-0.381
		c0.019-0.021,0.006-0.074,0.021-0.1c0.021-0.004,0.025,0.006,0.04,0.01c0.042-0.099,0.157-0.125,0.18-0.24
		c0.046-0.016,0.019,0.041,0.052,0.039c0.017-0.008,0.031-0.033,0.039-0.049c0.008,0.002,0.01,0.01,0.021,0.01
		c0.017-0.053-0.021-0.053-0.03-0.08c0.053-0.094,0.119-0.107,0.201-0.041c-0.005-0.061,0.009-0.098,0.021-0.16
		c0.479-0.24,1.338-1.932,1.976-1.825c0.019,0.041,0.017,0.031-0.011,0.06c0.01,0.022,0.062-0.026,0.08,0
		c0.1,0.572-2.787,4.476-3.299,4.863c-0.052,0.008-0.055-0.029-0.092-0.01c-0.036,0.186-0.257,0.395-0.29,0.541
		c-0.007-0.02,2.362-0.105,2.507-0.1c0.274,0.037,0.883-0.168,1.185-0.09c0.015-0.004-0.005-0.014,0-0.031
		c0.13,0.058,0.243,0.051,0.341-0.02c0.031-0.001,0.034,0.025,0.04,0.051c0.335-0.037,0.687-0.008,1.071-0.061
		c1.018-0.111,2.146-0.089,3.199-0.051c-0.752,1.059-9.332,3.043-10.229,3.199c1.333,0.914,6.063-0.918,7.792-0.713l-0.006,0.016
		l0.016,0.005c0,0.006,0,0.013,0,0.021c0.005-0.017,0.01-0.031,0.016-0.045l-0.016-0.006c0.059-0.039,0.655-0.014,0.602-0.02
		c-0.021,0.066,0.031,0.062,0.039,0.1c0.043-0.006,0.015-0.046,0.03-0.061c0.199-0.021,0.628-0.121,0.843-0.049l-0.004,0.018
		l0.014,0.012c-0.021,0.139-0.705,0.252-0.883,0.25c-0.02,0.002,0.017,0.038-0.01,0.051c-0.643,0.039-0.463,0.088-0.871,0.18
		c-0.072-0.006-0.216,0.064-0.252,0.061c-0.029,0.01-0.018-0.021-0.021-0.039c-0.167,0.028-0.319,0.094-0.451,0.17
		c-0.031,0.004-0.028-0.025-0.04-0.041c-0.018,0.01-0.011,0.043-0.02,0.061c-0.039,0.009-0.01-0.045-0.041-0.041
		c-0.082,0.094-0.183,0.15-0.301,0.17c-0.037-0.002-0.039-0.041-0.051-0.07c-0.021,0.01,0.014,0.045,0,0.08
		c-0.061,0.02-0.117-0.054-0.181,0c0.007,0.021,0.036,0.043,0.01,0.07c-0.012-0.002-0.019,0.002-0.021,0.01
		c-0.047,0.006-0.037-0.043-0.06-0.061c-0.053,0.027-0.007,0.037,0,0.08c-0.063,0.024-0.123,0.051-0.19,0.07
		c-0.002-0.025-0.02-0.031,0-0.05c-0.06-0.047-0.123-0.054-0.19-0.021c0.017,0.039,0.084,0.023,0.09,0.07
		c-0.093,0.079-0.17,0.079-0.229,0c-0.004-0.039,0.045-0.027,0.051-0.061c-0.082-0.012-0.146,0.019-0.191,0.091
		c-0.008,0.038,0.021,0.039,0.04,0.05c-0.096,0.071-0.262,0.072-0.38,0.12c-0.001-0.058-0.077-0.065-0.061-0.11
		c0.026,0.004-0.324,0.205-0.361,0.211c0.004-0.033-0.02-0.037-0.01-0.07c-0.03,0.117-0.113,0.175-0.252,0.17
		c-0.021-0.01-0.029-0.029-0.029-0.061c-0.051,0.086-0.121,0.119-0.21,0.1c-0.058,0.014-0.44,0.078-0.554,0.111
		c0.009,0.021,0.006,0.039-0.01,0.055l0.01,0.015c-0.059-0.01-0.104,0.046-0.188,0.04c0.004-0.027,0.024-0.035,0.029-0.061
		c-0.027-0.029-0.072,0.008-0.091,0.021c-0.008,0.031,0.019,0.03,0.011,0.06c-0.11,0.061-0.231,0.108-0.381,0.131
		c0-0.01,0-0.021,0-0.03c-0.591,0.034-1.071,0.452-1.665,0.53c0.037,0.07,0.096,0.106,0.17,0.111c0.031-0.014-0.01-0.035,0-0.061
		c0.402,0.061,2.706,0.359,2.979,0.722c0.022-0.011,0.017-0.051,0.041-0.06c0.168,0.005,2.877,0.67,2.887,0.24
		c0.021,0,0.021,0.024,0.021,0.049c1.713,0.229,9.876-3.66,10.617-2.758c0.006,0.615-9.08,4.262-10.256,4.554
		c0,0.036,0,0.073,0,0.11c-0.024,0.002-0.038,0.016-0.071,0.01c-0.003,0.103-0.066,0.168-0.189,0.199
		c-0.043-0.008-0.061-0.021-0.07-0.039c-0.105,0.039-0.148,0.105-0.131,0.201c-0.162,0.043-0.395,0.28-0.49,0.381
		c-0.146,0.072-0.18,0.289-0.411,0.351c-0.006,0.069-0.003,0.124-0.01,0.17c-0.038,0.008-0.05-0.013-0.081-0.011
		c-0.171,0.041-0.482,0.492-0.682,0.562c-0.326,0-2.936,2.984-3.028,3.338c-0.015-0.01-0.031-0.016-0.029-0.041
		c-0.021,0.01-0.021,0.039-0.021,0.07c-0.021,0.02-0.041-0.011-0.071-0.01c0.007,0.102-0.623,0.811-0.66,0.721
		c-0.249,0.137-0.28,0.611-0.612,0.691c-0.045,0.039-0.055,0.113-0.011,0.141c0.218,0.141,0.513,0.176,0.712,0.312
		c2.686-1.012,5.413-2.502,7.975-3.821c0.002,0.05,0.031,0.08,0.09,0.09c0.027-0.027-0.018-0.041-0.012-0.08
		c0.037-0.066,0.15-0.109,0.211-0.119c0.054,0.043,0.072,0.096,0.061,0.159c0.075-0.058-0.027-0.108-0.029-0.18
		c0.146-0.019,0.1-0.087,0.23-0.062c0.033-0.023,0.066-0.045,0.109-0.06c-0.004,0.063,0.055,0.071,0.041,0.121
		c0.092-0.151,0.235-0.231,0.432-0.241c-0.051,0.121-0.355,0.432-0.521,0.432c0,0.033-0.037,0.059-0.039,0.09
		c-0.037,0.006-0.019-0.043-0.041-0.051c-0.016,0.028-0.035,0.036-0.059,0.025c0.091-0.073-0.529,0.229-0.562,0.285
		c0.095,0.136,0.344-0.168,0.371-0.19c0.034,0.041,0.074,0.074,0.121,0.101c-0.408,0.119-3.016,1.578-3.089,1.906
		c-0.248,0.055-0.673,0.624-0.872,0.551c-0.182,0.037-0.32,0.301-0.57,0.34c-0.008,0.227-0.287,0.258-0.472,0.363
		c0,0.016,0,0.033,0,0.049c-0.405,0.146-0.653,0.668-1.073,0.812c2.471,0.52,5.232-1.385,7.48-2.577
		c0.055-0.008,0.081,0.012,0.13,0.01c0.032-0.029-0.052-0.041-0.021-0.069c0.062-0.034,0.404-0.255,0.481-0.16
		c0.037-0.004-0.014-0.06,0.029-0.069c0.037-0.011,0.005,0.049,0.051,0.029c0.035,0.006,0.271-0.143,0.32-0.15
		c0.032,0.062,0.063,0.125,0.091,0.189c-0.018,0.092-0.186,0.199-0.252,0.24c0.012,0.013,0.012,0.035,0.011,0.062
		c-0.106,0.101-0.231,0.196-0.312,0.28c-0.077,0.021-0.221-0.012-0.221,0.15c-0.098,0.064-0.473,0.356-0.593,0.372
		c-0.021,0.02-0.022-0.012-0.04-0.021c-0.082,0.004-0.156,0.15-0.199,0.211c-0.037,0.021-0.082,0.006-0.11-0.01
		c-0.021,0.023,0.028,0.053,0,0.09c-0.086,0.09-0.324,0.08-0.361,0.25c-0.024-0.004-0.041-0.02-0.06-0.029
		c-0.785,0.6-2.084,1.256-2.708,2.035c0.345,0.43,2.795,0.568,2.786,0.992c0.064-0.049,0.17-0.051,0.252-0.01
		c0.138,0.137,0.037-0.082,0.291,0.1c-0.008,0.055,0.021,0.072,0.039,0.102c0.08-0.014-0.006-0.047,0.021-0.08
		c-0.034,0.002,0.281,0.059,0.281,0.061c0.019,0.064-0.026,0.107-0.011,0.17c0.09,0.016,0.068-0.084,0.08-0.121
		c0.174,0.033,0.315,0.328,0.502,0.182c0.041,0.117,0.113,0.176,0.221,0.172c-0.051-0.033-0.055-0.039-0.04-0.111
		c0.046,0.053,0.104,0.074,0.17,0.07l-0.015,0.012l0.005,0.02c-0.007,0-0.015,0-0.021,0c-0.01,0.043,0.041,0.086,0.091,0.102
		c0.018-0.018,0.012-0.055,0.029-0.072c0.02,0.014,0.047,0.014,0.07,0.021c-0.008,0.021-0.038,0.021-0.04,0.051
		c0.091-0.07,0.629,0.193,0.702,0.221c0.101-0.129,0.24-0.113,0.421,0.041c-0.052,0.033-0.052,0.08,0,0.141
		c-0.056-0.049-0.101-0.045-0.13,0.01c-0.033,0.01-0.014-0.033-0.03-0.039c-0.14,0.025-0.3,0.045-0.421,0.039
		c-0.025-0.02-0.023-0.068-0.061-0.08c-1.828,0.205-3.896-0.502-5.795-0.432c0.818,1.916,1.926,3.891,2.438,5.836l-0.02-0.004
		l-0.012,0.016c-0.02-0.006-0.02-0.029-0.051-0.021c-0.014,0.088,0.018,0.135,0.091,0.141l-0.005,0.016
		c0.02,0.213,0.117,0.16,0.175,0.346c-0.028,0-0.043,0.01-0.039,0.029c-0.077-0.01-0.14-0.121-0.19-0.129
		c-0.014,0.012-0.02,0.033-0.021,0.061l-0.017-0.004l-0.004,0.014c-1.133-0.371-3.66-4.822-3.961-5.854
		c-0.609-0.066-1.252-0.188-1.844-0.312c0.625,1.305,1.334,5.934,2.405,6.508c-0.046,0.088,0.412,1.244,0.531,1.373
		c0.003,0.014,0.03,0.014,0.03,0c0.035,0.076,0.047,0.105,0.011,0.15c-0.009-0.004-0.017-0.012-0.03-0.01
		c0.006,0.031,0.137,0.363,0.07,0.451c-0.032-0.004-0.053-0.021-0.061-0.051c0.045,0.086,0.021,0.166-0.07,0.24
		c-1.094-0.043-4.414-8.32-5.444-8.992c-1.058,8.453,13.255,11.787,13.106,17.045c-3.354,0.369-8.515-8.547-11.834-7.238
		c0.01-0.049-6.211-1.35-6.787-1.213c0.109,0.092,0.193,0.205,0.25,0.34c0.812,0.072,3.203,3.469,3.812,3.168
		c-0.005,0.01-0.011,0.018-0.011,0.029c0.421,0.281,2.211,1.605,2.096,2.176c-2.041-0.266-3.486-2.697-5.454-3.098
		c-0.013-0.115-0.083-0.195-0.211-0.24c-0.188,0.057-0.903-0.268-1.032-0.502c-0.014,0.01-0.021,0.027-0.029,0.041
		c-0.357-0.186-0.691-0.416-1.055-0.623c-0.104,0.129-0.108,0.23-0.01,0.301c0.026-0.018-0.014-0.051,0-0.09
		c0.084,0.121,0.137,0.256,0.16,0.402c-0.032-0.01-0.021-0.01-0.04,0.01c0.071,1.225,5.669,6.625,4.923,7.141
		c-1.438-0.225-3.138-2.4-4.542-3.107c0.249,0.707,0.318,2.953,0.12,3.52c-0.275-0.045-1.395-3.662-1.372-4.029
		c-0.455,0.262-2.211,2.756-2.336,3.311c-0.559-0.607-0.204-2.646,0.391-2.598c-0.033-0.148,0.047-0.348,0.101-0.49
		c-0.003-0.027-0.018,0.014-0.04,0c0.096-0.568,0.298-1.174,0.319-1.725c-0.008,0.006-0.026,0.016-0.028,0
		c-0.001-0.012,0.217-0.662,0.17-0.604c-1.344-0.131-3.354,6.869-4.582,6.717c0.435-3.043,1.929-7.154,3.188-9.945
		c-0.34,0.012-2.201,2.461-2.207,2.486c-0.229,0-1.75,1.775-1.744,1.926c-0.025,0-0.035-0.02-0.051-0.029
		c-0.022,0.014-0.031,0.041-0.049,0.061c0.008,0.025,0.043-0.02,0.059,0.012c-0.016,0.029-0.166,0.275-0.229,0.309
		c-0.034-0.008-0.032,0.004-0.062-0.02c-0.025,0.023-0.057,0.043-0.069,0.08c0.009,0.025,0.045-0.02,0.062,0.01
		c-0.158,0.045-0.248,0.162-0.271,0.352c-0.05,0.006-0.057-0.037-0.102-0.01c-1.523,1.531-2.645,10.729-4.45,11.15
		c0.598-6.508,1.978-12.158,1.725-18.869c-0.37,0.066-0.493,2.236-0.472,2.438c-0.03-0.008-0.029,0.018-0.061,0.01
		c0.086,0.117-0.125,0.863-0.149,0.953c-0.239,2.572-1.229,5.281-1.153,7.879c0.003,0.016,0.025,0.01,0.04,0.012
		c-0.026,0.084-0.06,1.072-0.239,1.152c-0.037-0.006-0.074-0.014-0.121-0.01c-1.343-1.166,0.09-8.932,0.029-10.84
		c-0.824,0.258-1.143,2.246-1.072,2.959c-0.021,0.029-0.072,0.027-0.101,0.049c0.05,0.078,0.053,0.154,0.01,0.23
		c-0.019,0.156,0.062-0.014-0.061,0.23c0.003,0.295,0.036,0.621,0,0.932c-0.021,0.014-0.029-0.004-0.06,0.012
		c-0.07,0.129-0.068,0.256,0.01,0.381c-0.041-0.004-0.031-0.008-0.061-0.031c-0.021,0.07,0.064,0.312,0.04,0.422
		c-0.142,0.061-0.175,0.184-0.101,0.371c0.012,0.045,0.041,0.008,0.07,0.029c0.03,0.17-0.109,0.402-0.13,0.57
		c0.009,0.012,0.035-0.004,0.05,0.021c0.028-0.004,0.004-0.057,0.041-0.051c0.043,0.094-0.183,0.662-0.201,0.73
		c0.014,0.025,0.049,0.006,0.051,0.021c-0.039,0.084-0.012,0.137,0.08,0.16c-0.012,0.119-0.055,0.229-0.07,0.332
		c-0.057,0.014-0.072,0.051-0.05,0.109c-0.03,0.023-0.063-0.008-0.091,0.01c-0.09,0.295,0.104,0.766-0.101,1.043
		c0.066,0.102,0.08,0.209,0.041,0.32c-0.034,0.01-0.042-0.02-0.061,0c-0.109,0.639,0.384,2.645-0.21,3.027
		c-0.619-0.17-1.241-7.93-1.232-8.451c-0.42,0.346-1.779,2.447-2.406,2.357c-0.394-0.475,1.574-1.92,1.455-2.438
		c0.321,0,1.754-2.424,1.934-2.85c-0.37-0.092-5.568-0.23-5.584-0.512c-0.453-0.064-1.064,0.029-1.534-0.129
		c-0.003-0.012-0.007-0.021-0.011-0.031c0.023-0.002,0.02-0.033,0.051-0.029c-0.001,0.02,0.013,0.021,0.01,0.039
		c0.023-0.01,0.021-0.045,0.051-0.049c-0.082-0.014-0.162-0.029-0.242-0.051c0.078-0.217,0.207-0.246,0.371-0.102
		c0.01-0.031-0.015-0.031-0.029-0.039c0.033-0.021,0.041-0.072,0.08-0.09c0.027,0.021,0.009,0.039,0.021,0.061
		c0.047-0.01,0.045-0.021,0.101-0.012c0.027-0.025-0.013-0.02-0.01-0.049c0.002-0.004,0.314-0.039,0.32-0.041
		c0.021,0.021-0.009,0.033,0.01,0.051c1.436-1.852,7.729,0.824,8.833-2.096c-1.995-0.582-4.471-0.543-6.538-0.791
		c-0.007-0.031,0.018-0.029,0.01-0.061c-0.088-0.008-0.426-0.051-0.472-0.041c-0.028,0.008,0.007,0.031,0,0.051
		c-0.071,0.021-0.11-0.004-0.12-0.08c-0.099-0.004-0.188,0.1-0.229-0.07c0.024-0.002,0.082-0.014,0.1,0.01
		c0.013-0.025,0.022-0.029,0.011-0.061c0.033,0.02,0.047,0,0.09,0c0.015-0.016-0.006-0.053-0.041-0.049
		c0.018-0.111,0.566-0.107,0.643-0.051c0.043-0.051,0.1-0.066,0.17-0.051c0.046-0.004-0.029,0.055,0.01,0.08
		c0.014-0.062,0.053-0.092,0.121-0.092c0,0.041,0.004,0.076,0.02,0.102c0.029,0.01,0.018-0.021,0.02-0.039
		c0.026,0,0.012,0.043,0.051,0.029c0.031-0.018-0.031-0.021-0.011-0.061c0.058-0.02,0.038,0.043,0.08,0.039
		c0.021,0,0.248-0.084,0.25-0.09c0.168-0.023,0.474-0.082,0.632,0.061c0.022-0.029-0.011-0.057,0.02-0.08
		c0.08,0.029,0.143,0.016,0.191-0.041c0.07,0.025,0.229-0.049,0.28,0.031c0.033,0.006,0.892-0.057,0.942-0.111
		c-0.004,0.023,0.002,0.039,0.01,0.051c0.146-0.254,0.938,0.055,1.152,0.061c0.033-0.027,0.018-0.104,0.07-0.109
		c0.036,0.006-0.006,0.061,0.051,0.061c0.016-0.014,0-0.078-0.011-0.102c0.041-0.029,0.08,0.027,0.091,0.062
		c0.037,0.006,0.024-0.035,0.039-0.051c0.025,0.059,0.114,0.055,0.18,0.07c0.029-0.008,0.05-0.023,0.041-0.07
		c0.182,0.102,0.613,0.064,0.802,0.02c0.014-0.035,0.028-0.07,0.06-0.088c0.047-0.002,0,0.035,0.01,0.059
		c0.096,0.094,0.555-0.109,0.603-0.158c-1.797,0.096-7.659-2.543-9.015-0.402c-2.014-0.541-5.348,2.645-7.51,2.607
		C0.032,39.646-0.003,39.623,0,39.556c0.373-0.471,3.234-1.318,3.259-1.814c0-0.01,0-0.02,0-0.029l0.019,0.004l0.013-0.016
		c0.021,0.021,0.017,0.037,0.05,0.021c0.068-0.002,0.829-0.5,0.812-0.48c-0.023-0.01-0.045-0.02-0.061-0.039
		c0.041-0.023,0.153-0.006,0.15-0.102c0.025,0.002,0.014,0.039,0.039,0.041c0.035-0.025,0.055-0.066,0.07-0.111
		c0.379-0.395,1.338-0.697,1.805-1.012c0.051-0.012,0.05,0.029,0.091,0.029c0.026-0.027-0.007-0.055,0-0.09
		c2.073-0.422,3.418-2.461,4.653-3.852c0.026-0.008,0.02,0.02,0.039,0.02c0.082-0.064,0.103-0.143,0.061-0.229
		c0.914-0.25,1.713-2.803,2.457-3.48c-0.54-0.017-1.473,0.496-1.875,0.752c-0.326,0.021-0.864,0.354-1.184,0.312
		c-0.111,0.186-0.377,0.289-0.582,0.211c-0.117-0.014-2.26,0.625-2.326,0.821c-0.408,0.059-0.924,0.334-1.373,0.439
		c-0.006-0.012-0.01-0.025-0.01-0.039c-0.217-0.098-1.332,0.297-1.475,0.354c-0.051,0.004-0.014,0.098-0.081,0.088
		c-0.165-0.297,6.886-4.002,7.37-4.32c-0.025-0.251-4.914,0.837-5.184,1.083c-0.592-0.086-2.475,1.023-2.838,0.771
		c-0.142-0.1,4.525-2.261,5.113-2.666c-0.632-1.104-5.207-0.674-5.604-1.785c0.001-0.043-0.02-0.051,0.02-0.061
		c-0.018-0.025-0.06,0.021-0.05-0.04C3.846,23.731,8.78,24.994,9.587,25c-0.819-1.827-2.183-5.452-2.097-7.429
		c0.095,0.053,0.173,0.121,0.25,0.189c0.015-0.003,0.01-0.025,0.011-0.039c0.265,0.002,0.435,0.674,0.591,0.771
		c-0.038-0.129-0.15-0.237-0.16-0.361c0.666-0.197,3.121,7.355,5.465,7.369c0.383-0.561-0.869-2.993-0.982-3.75
		c-0.094-0.031-0.131-0.104-0.11-0.221c-0.01-0.03,0.022-0.018,0.04-0.02c-0.158-0.152-0.24-0.683-0.24-0.873
		c0,0.014-0.246-0.643-0.19-0.552c0.021-0.012,0.05,0.009,0.06-0.03c-0.033-0.133-0.328-0.289-0.109-0.451
		c-0.02,0.002-0.035-0.031-0.061-0.049c-0.01-0.048,0.04-0.035,0.03-0.082c-0.009-0.018-0.032-0.021-0.06-0.02
		c0.041-0.032-0.012-0.044,0-0.1c-0.01-0.029-0.025,0.013-0.051,0c0.032-0.125-0.148-0.246-0.08-0.401
		c-0.008-0.029-0.049-0.024-0.07-0.04c-0.006-0.044,0.033-0.041,0.041-0.07c-0.004-0.035-0.043-0.021-0.051-0.029
		c-0.096-0.933-1.688-3.795-1.152-4.482c0.062-0.035,0.119-0.008,0.17,0.021c0.77,0.865,1.553,2.912,1.805,4
		c0.061,0.112,0.11,0.224,0.23,0.291c-0.063,0.055-0.084,0.119-0.059,0.189c0.026-0.031,0.038-0.029,0.109-0.02
		c0.275,0.543,1.9,2.912,1.693,3.269c0.111,0.058,0.162,0.157,0.151,0.301c0.003,0.015,0.019,0,0.021-0.01
		c0.035,0.069,0.568,0.844,0.49,0.922c0.006-0.087,0.141,0.235,0.11,0.201c0.052,0.015,0.026-0.046,0.07-0.04
		c0.038,0.052,0.024,0.092-0.04,0.12c0.031,0.04,0.031-0.035,0.07-0.021c0.127,0.434,0.775,2.112,1.213,2.217
		c0.271-0.545-2.336-7.567-2.998-8.012c0.594-4.052-7.725-7.802-8.162-11.5c0.134,0.026,0.221,0.1,0.261,0.221
		c4.203,0.867,6.659,9.084,11.181,9.524c0.008,0.013,0.012,0.026,0.01,0.05c0.184,0.018,0.271,0.006,0.4,0.131
		c0.53,0.36,1.713,0.398,2.366,0.551c-0.567-1.94-3.345-4.102-4.481-5.686c-0.018,0.006-0.041-0.029-0.05,0
		c-0.804-0.99-2.28-2.457-2.708-3.65c0.053-0.041,0.059-0.004,0.151,0.021c-0.003-0.057-0.063-0.056-0.06-0.121
		c0.791,0.121,4.849,3,5.022,3.789c0.001,0.004-0.015,0.016-0.01,0.02c0.13,0.162,1.69,1.295,1.645,1.445
		c0.703,0.74,2.623,2.526,3.569,2.846c0.502-0.998-2.471-4.814-3.448-5.022c-0.084-0.085-0.423-0.308-0.391-0.44
		c-0.03-0.014-0.077-0.01-0.121-0.01c-0.21-0.451-1.75-1.13-1.694-1.675c0.19-0.157,0.585,0.228,0.672,0.312
		c0.01,0.029,0.014,0.035-0.01,0.05c0.018,0.032,0.062-0.044,0.08-0.011c0.652-0.197,3.725,2.752,4.492,3.059
		c0.213-0.131,0.018-1.191-0.01-1.385c-0.004-0.014-0.025-0.008-0.041-0.01c0.102-0.297-0.297-0.789-0.18-1.043
		c-0.037-0.008-0.055,0.019-0.07,0c0.052-0.211,0.102-0.681-0.062-0.822c0.009-0.028,0.017-0.01,0.041-0.01
		c-0.069-0.188-0.008-0.5-0.131-0.642c-0.005-0.03,0.026-0.026,0.03-0.05c-0.006-0.025-0.021-0.041-0.041-0.051
		c-0.057-0.266-0.09-0.621-0.141-0.893c0.002-0.043,0.019-0.018,0.051-0.02c0.117-0.393-0.826-2.82-0.4-3.02
		c0.057,0.123,0.096,0.25,0.12,0.381c-0.034-0.098-0.041-0.199-0.021-0.301l0.019,0.006l0.012-0.016
		c0.095,0.104,0.162,0.43,0.17,0.521c0.003,0.023,0.063-0.028,0.07,0c-0.089-0.094,0.069,0.461,0.062,0.301
		c-0.041,0.041-0.045,0.087-0.011,0.14c0.008,0.024,0.035-0.028,0.05,0c0.107,0.247,0.146,0.595,0.262,0.843
		c-0.002,0.029-0.026,0.033-0.03,0.059c0.009,0.016,0.024,0.021,0.05,0.021C22.21,5.71,22.184,5.72,22.182,5.754
		c0.016,0.021,0.156,0.397,0.17,0.401c-0.009,0.035-0.035,0.05-0.07,0.06c0.029,0.161,0.513,0.79,0.32,0.972
		c0.058-0.014,0.09,0.014,0.102,0.082c-0.002,0.037-0.057,0.023-0.061,0.06c0.004,0.056,0.055,0.065,0.08,0.101
		c0.01,0.031-0.025,0.021-0.029,0.039c0.313,0.771,0.715,1.697,0.883,2.527c0.658-0.462,4.17-3.297,4.08-3.99
		c0.322-0.013,0.461-0.604,0.803-0.682c-0.025,0.41-0.234,0.718-0.553,0.982c-0.659,2.42-2.119,5.088-2.796,7.351
		c1.108-0.359,6.678-10.058,6.858-9.776c-0.659,4.014-7.325,10.887-5.885,14.95c1.046-1.116,1.904-2.992,2.617-4.312
		C28.77,12.022,32.473,2.515,34.072,0l0.013,0.015c-0.033,5.106-1.704,10.514-1.704,15.877c-0.001,0,0.301,3.14,0.33,3.439
		c0.113-0.105,0.491-0.089,0.531-0.291c1.15,0.4,0.535-7.424,0.982-7.951c-0.005-0.021-0.054,0-0.061-0.02
		c-0.006-0.066,0.018-0.104,0.01-0.17c0.027,0.006,0.039,0.027,0.04,0.06c0.022-0.015,0.004-0.069,0.011-0.101
		c-0.021-0.034-0.055,0.021-0.061,0c-0.126-0.277,0.082-1.734,0.15-2.086c-0.039-0.262,0.107-0.752-0.011-0.992
		c0.009-0.002,0.12-0.02,0.101,0c0.002-0.04-0.023-0.062,0.012-0.11c0.013,0,0.02-0.007,0.02-0.021c0.01,0,0.008,0.013,0.012,0.021
		c0.011-0.002,0.006-0.021,0.021-0.021l0.011,0.016L34.5,7.655z M30.681,13.591c-0.3,1.076-5.481,8.768-3.51,9.153
		c0.104-0.321,2.546-5.324,2.486-5.354c0.319,1.866-0.279,4.088-0.491,5.986c0.452,0.229,0.965-0.516,1.112-0.832
		c0.549-0.324,0.614-8.352,0.433-8.954C30.699,13.591,30.691,13.591,30.681,13.591C30.644,13.722,30.691,13.591,30.681,13.591z
		 M15.882,17.501c0.008,0.115,0.082,0.166,0.09,0.281c0.017,0.004,0.024-0.016,0.03,0c0.418,2.722,2.521,5.959,3.76,8.281
		c0.027-0.008,0.025,0.015,0.05,0.01c0.028-0.014-0.018-0.041,0.011-0.049c3.408,0.195-1.004-4.121-0.432-4.692
		c-0.064-0.082-0.105-0.188-0.16-0.281c0.023-0.007,0.016-0.046,0.04-0.05c0.253,0.238,0.533,0.436,0.843,0.592
		c-0.006,0.021-0.024,0.029-0.02,0.061c0.15,0.252,0.48-0.066,0.611,0.41c-0.024,0.025-0.026,0.01-0.07,0.01
		c0.02,0.031,0.075,0.074,0.102,0.041c0.019-0.004-0.035-0.049,0-0.07c0.123,0.016,0.41,0.18,0.45,0.271
		c0.021,0.035-0.004,0.045-0.01,0.08c0.11,0.071,0.299,0.102,0.421,0.189c0,0.02,0,0.04,0,0.061c0.049,0.006,0.038-0.047,0.08-0.021
		c3.7,2.208,1.191-2.166-1.082-2.606c-0.009-0.013-0.014-0.027-0.01-0.051c-0.166-0.167-1.871-1.113-2.025-1.072
		c0-0.281-0.715-0.358-0.812-0.521c-0.004-0.023,0.046,0.006,0.031-0.03c-0.052-0.026-0.127-0.034-0.172-0.041
		c-0.007-0.03,0.019-0.028,0.01-0.06c-0.051,0.007-0.049-0.037-0.09-0.04c-0.031-0.005-0.004,0.05-0.039,0.04
		c-0.383-0.149-1.027-0.91-1.475-0.893c-0.001,0.012,0.001,0.029-0.01,0.03c-0.072-0.112-0.163-0.166-0.271-0.161
		C15.778,17.317,15.798,17.44,15.882,17.501C15.889,17.616,15.798,17.44,15.882,17.501z M42.482,23.407
		c-1.18,0.182-2.508-0.078-3.6,0.201c-0.973-1.834-6.777,0.965-7.27,2.377c0.084,0.254,0.235,0.57,0.36,0.812
		c0.875-0.192,6.888-2.194,6.888-2.187c-1.018,2.037-5.117,2.062-6.104,4.012c0.157,2.477,9.653-3.668,10.117-5.244
		C42.75,23.308,42.611,23.388,42.482,23.407C42.461,23.411,42.611,23.388,42.482,23.407z M20.985,27.879
		c-0.035,0.038-0.091,0.119-0.149,0.069c-0.011,0.033,0.016,0.025,0.021,0.041c-0.013,0.035-0.052,0.041-0.091,0.05
		c-0.024,0.004,0.005-0.046-0.03-0.03c-0.027,0.113-0.101,0.188-0.221,0.221c0.331,1.672,1.196,3.268,1.635,4.903
		c1.291-0.098,0.245-2.441,0.41-3.018c-0.037-0.008-0.05,0.029-0.07,0.021c0.006-0.055-0.035-0.059-0.029-0.111
		c0.015,0.006,0.025,0.016,0.04,0.02c0.015-0.317-0.036-0.18-0.2-0.319c0.119-0.351,0.123-0.715,0.221-1.074
		c0.057-0.059,0.471-0.742,0.643-0.741c0.025-0.169,0.128-0.323,0.301-0.371c-0.028-0.085,0.002-0.158,0.09-0.22
		c0.02-0.002,0.021,0.011,0.04,0.01c-0.013-0.104,0.042-0.167,0.161-0.191c-0.02-0.005-0.042-0.005-0.051-0.02
		c1.41-1.982,3.916,0.164,5.463-1.434c0.069-0.002,0.332-0.274,0.352-0.322c-4.169-0.523-4.944,1.65-8.483,2.478
		c0.004-0.028-0.037-0.009-0.039-0.03c0.004-0.016,0.061-0.031,0.029-0.05C21.003,27.796,20.991,27.836,20.985,27.879
		C20.95,27.917,20.965,27.823,20.985,27.879z M29.406,26.536c-0.028,0.014-0.051-0.027-0.061,0c0.021-0.002,0.005,0.035,0.01,0.05
		c-0.15,0.062-0.467,0.437-0.521,0.511c0.208,0.342,0.897,1.436,0.933,1.855c-0.033,0.174,0.092,0.508-0.05,0.662
		c-0.017-0.016-0.004-0.059-0.04-0.051c-0.18,0.438-0.466,0.842-0.611,1.274c-1.142,3.611-3.322,0.902-5.494,2.236
		c-0.012,0.025,0.043,0.035,0.011,0.051c-0.093-0.02-0.073-0.146-0.191-0.141c-0.026,0.174-0.687,1.018-0.821,1.043
		c-0.013-0.012-0.019-0.029-0.049-0.021c0.146,0.072,0.299,0.105,0.461,0.102c0-0.012-0.002-0.029,0.01-0.031
		c0.131,0.068,0.26,0.133,0.42,0.121c0.003-0.027-0.008-0.068,0.021-0.07c0.178,0.076,0.184,0.031,0.32,0.041
		c0.085,0.02,0.097,0.111,0.201,0.109c0.007-0.029,0.003-0.07,0.029-0.08c1.047,0.102,2.287,0.582,3.358,0.523
		c1.145-1.361,3.137-3.426,3.378-5.024c0.03-0.119-0.638-3.783-0.731-3.77C29.814,26.147,29.613,26.345,29.406,26.536
		C29.378,26.549,29.613,26.345,29.406,26.536z M27.081,30.656c0.814-1.868,0.605-3.072-2.045-1.975
		c-0.022-0.007,0.029-0.08-0.021-0.08c-0.769-0.224-0.778,2.192-0.702,2.516c0.893,0.076,1.788-0.256,2.697-0.229
		C27.073,30.824,27.049,30.732,27.081,30.656C27.108,30.599,27.049,30.732,27.081,30.656z M19.542,29.282
		c-2.254-1.381-8.271,2.85-8.965,5.245c0.021,0.004,0.004,0.045,0.021,0.051c-0.047-0.002-0.018,0.076-0.081,0.061
		c-0.003,0.02,0.015,0.021,0.021,0.029c0.002,0-0.397,0.436-0.401,0.451c2.978,0.434,6.194-0.416,9.155,0.111
		c0.459-1.121,1.629-1.309,1.393-2.588c-0.882-0.625-5.807,0.555-6.617,1.053c-0.014,0-0.009-0.018-0.021-0.021
		c-0.071,0.062-0.402-0.066-0.411-0.119c0.2-0.646,5.615-3.559,6.327-3.57c-0.009-0.213-0.026-0.428-0.05-0.642
		C19.819,29.313,19.674,29.239,19.542,29.282C19.405,29.2,19.674,29.239,19.542,29.282z M30.791,32.933
		c0.715,0.01,4.574,3.973,4.804,4.553c-0.237,0.396-5.636-2.012-6.567-1.945c-0.217,1.537,0.225,2.414,1.504,2.896
		c0.213,0.496,7.881,3.791,8.844,3.9c-0.082-0.232-1.596-2.555-1.635-2.547c-0.014-0.039-0.221-0.34-0.199-0.381
		c0.008-0.023,0.029,0.033,0.05,0c-0.017-1.744-2.851-4.516-3.5-6.197c-1.162,0.086-2.455-0.32-3.569-0.529
		C30.555,32.822,30.732,32.818,30.791,32.933C30.83,32.933,30.732,32.818,30.791,32.933z M22.579,42.91
		c-0.008,0.014-0.002,0.109-0.069,0.131c-0.418-1.348,1.437-6.021,0.08-6.697c-1.29,2.047-2.295,7.846-1.442,10.246
		c-0.003-0.092,0.541-0.893,0.541-0.893c0.074,0.021,3.152-3.969,3.088-4.492c1.008,0,1.729-3.209,1.715-3.779
		c-0.004,0-0.949-0.262-1.112-0.199c0.009-0.004-0.332,0.652-0.353,0.701c-0.007,0.021-2.151,5.115-2.445,5.104
		C22.577,42.958,22.616,42.847,22.579,42.91z"/>
</g>
</svg>
