<?xml version="1.0" encoding="utf-8"?>
<!-- Generator: Adobe Illustrator 16.0.4, SVG Export Plug-In . SVG Version: 6.00 Build 0)  -->
<svg version="1.2" baseProfile="tiny" id="Layer_1" xmlns="http://www.w3.org/2000/svg" xmlns:xlink="http://www.w3.org/1999/xlink"
	 x="0px" y="0px" width="54px" height="48.258px" viewBox="0 0 54 48.258" xml:space="preserve">
<g id="Layer_20">
	<path fill="#E21D38" d="M37.531,2.86c0.568,0,1.438-2.096,1.705-2.467C39.262,0.253,39.395,0.106,39.516,0
		c0.014,0.095,0.059,0.131,0.135,0.112c0.068,0.986-0.92,1.855-0.92,2.804c-0.297-0.051-0.545,2.625-0.604,3.006
		c-0.031-0.026-0.085-0.001-0.111,0.011c0.026,0.155,0.193,0.133,0,0.28c0.014,0.039,0.039,0.065,0.056,0.101
		c0.051,0.117-0.054,0.365-0.078,0.461C37.973,7.04,38.082,7.44,38.094,7.75c-0.009-0.006-0.019-0.013-0.033-0.011
		c-0.744,2.016,1.291,4.121,2.242,5.507c-0.343,0.418-1.996,0.032-2.523,0.235c-0.034-0.012-0.02,0.024-0.021,0.045
		c-0.15-0.168-0.545,0.119-0.752,0.043c-0.014,0.002-0.01,0.021-0.012,0.035c-0.393-0.295-1.227,0.488-1.627,0.348
		c-0.129,0.15-0.402,0.217-0.572,0.258c-0.021,0.001-0.007,0.038-0.021,0.045c-0.428,0.122-1.389,0.643-1.514,1.145
		c-0.014-0.01-0.031-0.016-0.058-0.012c-0.04,0.219-1.147,1.618-0.976,1.737c0.041,0.013,0.031-0.026,0.066-0.022
		c0.035,0.271,0.128,0.297,0.191,0.482c0.148,0.023,0.25,0.193,0.146,0.325c0.048,0.144,0.585,0.832,0.707,0.998
		c0.251,0.081,0.209,0.391,0.313,0.549c0.043-0.013,0.045-0.067,0.078-0.09c0.334,0.302,1.263,2.368,1.615,2.368
		c-0.005,0.115,0.021,0.229,0.078,0.336c0.979-0.189,0.812,2.353,2.736,0.931c0.251-0.042,0.982-0.601,1.189-0.381
		c0.053-0.007,0.248-0.162,0.291-0.19c0.031,0.002,0.049,0.02,0.045,0.055c0.152-0.229,0.905-0.364,0.908-0.561
		c0.133-0.025,1.565-1.064,1.604-0.998c0.075-0.033,0.049-0.103,0.157-0.102c0.195-0.131,0.289-0.238,0.516-0.247
		c0.001-0.05-0.034-0.062-0.021-0.124c0.31-0.09,0.686-0.792,0.941-0.594c0.023,0.002,0.005-0.041,0.012-0.057
		c0.314-0.05,0.793,0.709,0.978,0.875c0.271,0.002,0.866,0.407,1.054,0.562c0.105,0.016,0.287,0.01,0.234,0.19
		c0,0,0.279,0.021,0.338,0.034c0.17,0.231,0.9,0.544,1.178,0.604c0,0.016,0,0.031,0,0.045c0.309,0.012,0.835,0.332,1.032,0.494
		c0.022-0.004,0.003-0.049,0.022-0.057c0.028,0.026,0.072,0.038,0.111,0.057c-0.011,0.022-0.023,0.043-0.034,0.066
		c0.037-0.011,0.063-0.033,0.112-0.033c0.089,0.026,0.079,0.152,0.146,0.201c0.051-0.017,0.064-0.07,0.102-0.101
		c0.078-0.017,1.015,0.293,1.031,0.438c0,0,0.76-0.002,0.729,0.178c0.082,0.012,0.393,0.041,0.549,0.078
		c0.312-0.016,0.768,0.033,1.11,0.09c0.015,0.014,0.013,0.041,0.012,0.068c0.185-0.061,0.239,0.022,0.404,0.022
		c0.31,0.044,0.966,0.12,1.088,0.481c-0.112,0.088-0.905,0.123-1.043,0.035c-0.017-0.016-0.013-0.05-0.013-0.08
		c-0.025,0.035-0.148,0.071-0.18,0.112c-0.004,0.005,0.006,0.03,0,0.034c-0.086,0.055-0.979,0.016-0.963,0.021
		c-0.166,0.157-0.515,0.053-0.697,0.213c-0.162,0.045-0.924,0.33-1.021,0.257c-0.065,0.021-0.071,0.102-0.135,0.125
		c-0.04,0.006-0.027-0.041-0.066-0.033c-0.118,0.02-0.438,0.268-0.629,0.279c-0.026,0.104-0.093,0.176-0.2,0.213
		c-0.039,0.01-0.02-0.041-0.046-0.045c0.019-0.004-0.394,0.396-0.382,0.213c-0.021,0.127-0.102,0.168-0.234,0.123
		c-0.252,0.129-0.362,0.289-0.695,0.326c-0.106,0.203-0.024,0.164-0.225,0.191c-1.609,1.732-2.558,1.9-4.466,1.66
		c0.024-0.031-0.382-0.277-0.393-0.359c-0.052,0.02-0.077-0.035-0.146,0c-0.028-0.025,0.03-0.029,0-0.057
		c-0.01-0.029-0.021,0.029-0.056,0.012c0.008-0.078-0.09-0.051-0.09-0.123c-0.139-0.039-0.557-0.141-0.583-0.324
		c-0.095,0.02-0.157-0.023-0.19-0.135c-0.016,0.004-0.01,0.027-0.012,0.045c-0.18,0.029-2.631-1.154-2.637-1.18
		c-0.145,0.014-1.131-0.279-1.133-0.324c-0.063-0.008-1.75-0.677-1.672-0.123c-0.492,0.146-1.576,1.613-1.549,2.074
		c-0.021,0.336-0.531,0.986-0.66,1.355c-0.107,0.105-0.195,0.344-0.271,0.439c0.028,0.023,0.055,0.092,0.012,0.123
		c-0.036,0.01-0.034-0.02-0.058-0.021c-0.053,0.053,0.005,0.109,0.023,0.156c-0.023,0-0.045,0-0.066,0
		c0.074,0.887-1.24,2.383,0.337,2.748c0.015,0.029,0.052,0.037,0.057,0.08c0.009,0.045-0.054,0.02-0.045,0.064
		c0.04,0.072,0.122,0.051,0.179,0.014c0.008,0.041,0.031,0.064,0.022,0.123c0.31,0.115,0.741,0.232,1.099,0.336
		c0.021,0.299,1.336,0.209,1.323,0.572c0.206-0.006,0.41,0.082,0.584,0.123c0.011,0.014,0.015,0.029,0.011,0.057
		c0.068-0.061,0.16-0.004,0.236,0.021c0.01,0.027,0.025,0.051,0.021,0.092c0.041-0.002,0.041-0.043,0.078-0.047
		c0.033,0.131,0.143,0.16,0.325,0.092c0.005,0.037-0.004,0.061-0.012,0.088c0.048-0.008,0.078-0.033,0.124-0.045
		c0.027,0.002,0.018,0.043,0.033,0.057c0.175,0.014,0.476,0.027,0.595,0.191c0.035-0.004,0.035-0.041,0.058-0.057
		c0.127-0.01,0.359,0.113,0.516,0.111c0.011,0.014,0.016,0.031,0.013,0.057c0.292-0.008,0.938-0.113,1.021,0.281
		c-0.108,0.018-0.229,0.482-0.225,0.539c-0.035,0.008-0.021,0.008-0.057,0c0.022,0.141-0.168,0.234-0.156,0.438
		c-0.021,0.02-0.016-0.002-0.045,0c-0.055,0.02-0.172,0.809-0.213,0.941c-0.018-0.002-0.004-0.033-0.022-0.033
		c0.236,0.404-0.427,1.842-0.313,2.4c-0.012,0-0.021,0-0.032,0c0.185,0.26,0.188,0.447,0.011,0.561
		c0.037,0.184,0.104,0.543,0.034,0.686c-0.019,0.334,0.166,0.76,0.201,1.1c-0.035-0.006-0.046,0.014-0.056,0.033
		c0.07,0.057,0.086,0.115,0.045,0.18c0.002,0.023,0.049,0.004,0.056,0.021c0.228,1.662,1.196,3.025,1.503,4.633
		c0.023,0.031,0.059,0.008,0.078,0.023c0.058,0.203,0.24,0.748,0.111,0.965c-0.518-0.107-1.106-1.436-1.223-1.887
		c-0.042-0.012-0.031,0.027-0.066,0.023c-0.69-0.352-1.625-2.199-1.951-2.75c-0.006-0.025,0.021-0.016,0.021-0.033
		c-0.072-0.012-0.113-0.053-0.123-0.123c-1.793-0.055-2.945-2.846-5.396-2.107c-0.104,0.027-0.173,0.193-0.347,0.145
		c-0.104-0.129-0.295-0.168-0.315-0.381c0.012,0,0.022,0,0.035,0c-0.085-2.75,2.668-6.139-0.417-8.156
		c-0.219,0-0.848,0.09-0.998-0.111c-0.03-0.008-0.021,0.023-0.034,0.033c-0.583,0.082-1.349-0.115-1.952-0.201
		c-0.398,0.137-0.994,0.02-1.39,0.078c-0.037,0.018,0.023,0.027,0.012,0.057c-0.334,0.098-1.374,0.662-1.604,0.662
		c-0.119,0.414-0.275,0.873-0.359,1.322c-0.025,0-0.033-0.02-0.066-0.012c0.033,0.117-0.016,0.229-0.022,0.338
		c-0.013,0.008-0.03,0.014-0.056,0.012c-0.076,0.135-0.062,0.26,0.043,0.369c0,0.168-0.039,0.604-0.078,0.785
		c-0.045-0.008-0.061,0.016-0.078,0.033c0.055,0.07,0.043,0.129-0.034,0.18c0.022,0.18,0.06,0.314,0.045,0.494
		c-0.004,0.059,0.092,0.246,0.101,0.326c-0.074,0.062-0.074,0.141,0,0.234c0.017,0.105-0.103,0.521-0.09,0.629
		c0.022,0.016,0.059,0.016,0.067,0.045c0,0.033-0.021,0.047-0.045,0.057c0.288,0.795,1.424,3.305,1.414,4.016
		c-0.035-0.008-0.033,0.02-0.067,0.012c0.057,0.533-1.635,0.424-1.615,0.471c-0.459,0.172-1.484,0.559-1.806,0.955
		c-0.026,0.002-0.012-0.033-0.034-0.035c-0.07,0.131-0.15,0.26-0.314,0.227c-0.037,0.197-1.248,1.008-1.524,1.064
		c0.021,0.068,0.001,0.105-0.011,0.168c-0.139-0.023-0.156,0.203-0.338,0.203c0,0.031-0.037,0.08-0.01,0.135
		c-0.252,0.125-0.893,0.785-0.965,1.1c-0.021-0.004,0-0.053-0.045-0.035c0.006-0.002-0.338,0.707-0.336,0.719
		c-0.02,0-0.037,0-0.056,0c0.016,0.049,0,0.066-0.011,0.111c-0.035,0.01-0.021-0.029-0.057-0.021
		c-0.123,0.117-1.394,2.654-1.615,2.322c-0.013,0.002-0.01,0.021-0.011,0.033c0.155,0.062,1.308-5.771,1.369-6.113
		c-0.397-0.697,0.363-3.744-0.562-4.127c0.047-0.172-0.041-0.311-0.258-0.414c-0.012-0.238-0.174-0.295-0.234-0.494
		c0.01-0.051,0.344-0.482,0.404-0.303c0.043-0.012,0.021-0.045,0.033-0.066c0.041-0.012,0.01,0.051,0.045,0.045
		c-0.002-0.012,0.004-0.012,0.012-0.012l0.005,0.018c-0.011,0.004,0.422-0.129,0.442-0.074l-0.005,0.018l0.017-0.006
		c0.002,0.027,0.002,0.059,0.035,0.057c-0.023-0.023-0.029-0.049-0.018-0.072l-0.018,0.006c-0.022-0.145,0.281-0.129,0.304-0.012
		c0.04-0.014,0.065-0.039,0.079-0.078c0.016,0.01,0.043,0.008,0.033,0.045c0.664-0.762,3.904-1.396,3.904-2.637l0.016,0.006
		c0.064-0.23,0.285-0.58,0.533-0.566c1.683-4.066-2.432-5.102-2.052-8.041c-0.088-0.096-0.993-0.539-0.999-0.506
		c-0.764-0.283-1.605-0.121-2.367-0.213c-0.623,0.037-1.246-0.096-1.705,0.248c-0.123,0.008-0.26,0.023-0.358,0.158
		c-0.403,0.02-0.688,0.498-1.099,0.525c-0.047,0.004-0.043,0.1-0.09,0.123c-0.043,0.008-0.024-0.043-0.057-0.045
		c-0.074,0.045-0.126,0.051-0.156,0.113c0.041,0.051,0.026,0.094-0.046,0.135c-0.071-0.012-0.129-0.035-0.135-0.113
		c-0.104,0.08-0.03,0.336-0.224,0.326c-0.004-0.02,0.011-0.02,0.011-0.035c-0.041-0.004-0.062,0.014-0.091,0.023
		c-0.018,0.053,0.037,0.062,0.012,0.09c-0.053-0.002-0.037-0.029-0.089-0.012c-0.034,0.057-0.063,0.115-0.091,0.18
		c-0.061,0.033-0.08-0.037-0.156-0.021c-0.034,0.016,0.023,0.059-0.012,0.078c-0.024-0.01-0.027-0.041-0.045-0.057
		c-0.014,0.023-0.032,0.035-0.056,0.033v0.012c-0.009-0.002-0.011-0.012-0.022-0.012c-0.168,0.143-0.053,0.287-0.324,0.336
		c-0.023,0.021-0.002,0.088-0.021,0.113c-0.048-0.002-0.07,0.025-0.08-0.023c-0.06,0.02-0.291,0.189-0.258,0.293
		c-0.101-0.023-0.152,0.02-0.156,0.123c-0.027,0.027-0.021-0.018-0.057-0.012c-0.035,0.033-0.052,0.082-0.056,0.146
		c-0.04,0.02-0.028-0.008-0.067-0.012c-0.667,0.633-2.988,0.781-2.703-0.707c-0.623,0.088-1.41-1.336-2.199-1.289
		c-0.041-0.055-0.125-0.127-0.19-0.168c-0.097-0.027-0.312,0.047-0.37-0.145c-0.104,0.055-0.199,0.043-0.292-0.033
		c0-0.037,0-0.074,0-0.113c-0.06-0.006-0.038,0.027-0.034,0.066c-0.025-0.02-0.037-0.051-0.078-0.057
		c-0.025,0.002-0.006,0.049-0.013,0.068c-0.336,0.055-5.134-1.143-5.103-0.775c-0.196-0.067-0.312-0.034-0.348,0.102
		c-0.809-0.029-1.287,0.055-1.257-0.74c0.017,0.006,0.058-0.014,0.056,0.01c0.239-0.104,0.892-0.151,1.224-0.065
		c0,0.019,0,0.037,0,0.056c0.83,0,2.795-0.641,3.478-0.324c0.572,0.011,1.327-0.528,1.896-0.428
		c0.015-0.002,0.009-0.027,0.011-0.043c0.097,0.018,0.194,0.025,0.292,0.021c0.223-0.215,1.003-0.314,1.2-0.573
		c0.013,0.002,0.01,0.021,0.012,0.034c0.084-0.018,0.138-0.227,0.247-0.044c0.36-0.119,0.744-0.64,1.189-0.751
		c0.029-0.012,0.037-0.047,0.033-0.09c0.039-0.01,0.047,0.012,0.067,0.021c0.534-0.021,1.66-1.402,1.817-1.863
		c0.236-0.09,0.83,0.242,0.896,0.461c0.279,0.08,0.415,0.408,0.651,0.526c0.049,0.013,0.036-0.038,0.077-0.034
		c-0.028,0.176,0.269,0.293,0.371,0.303c0.16,0.174,0.305,0.369,0.449,0.494c0.039,0.01,0.053-0.006,0.043-0.045
		c0.236,0.039,0.368,0.303,0.438,0.482c0.042-0.002,0.047-0.042,0.09-0.044c0.187,0.048,0.272,0.142,0.259,0.28
		c0.131,0.031,1.309,0.613,1.323,0.672c0.026-0.006,0.024-0.043,0.067-0.033c0-0.004,0.621,0.301,0.65,0.314
		c1.704,0.266,2.906,0.447,4.7-0.045c-0.001-0.019,0.005-0.043-0.011-0.045c-0.021,0.08,0.224-0.197,0.201-0.18
		c0.606-0.143,1.55-2.49,1.55-3.062c0.032,0.024,0.101,0.01,0.123-0.012c-0.048-0.211,0.067-0.357,0.101-0.549
		c0.143,0.008,0.428-0.992,0.461-1.076c0.01,0,0.021,0,0.033,0c0.01-0.303,0.303-0.818,0.46-1.078
		c0.038-1.431-3.327-2.729-3.31-3.219c0.048-0.018-1.485-0.361-1.457-0.549c-0.043-0.012-0.018,0.042-0.057,0.033
		c-0.061-0.096-0.154-0.145-0.279-0.145c-0.021,0.016-0.01,0.064-0.045,0.066c-0.075-0.016-0.086-0.057-0.18-0.034
		c-0.009-0.034,0.02-0.032,0.012-0.067c-0.479-0.357-1.744-0.108-2.367-0.324c-0.133-0.815,0.982-1.479,0.931-2.367
		c0.009-0.006,0.019-0.012,0.034-0.012c0.015-0.067,0.128-0.39,0.033-0.448c0.045-0.322,0.332-1.214,0.191-1.492
		c0.022-0.071,0.09-0.653-0.023-0.707c0-0.05,0.033,0.015,0.057,0.011c-0.006-0.066,0.016-0.096,0-0.146
		c-0.095-0.081-0.266-1.232-0.279-1.479c0.019-0.033,0.062-0.043,0.101-0.057c-0.136-0.046-0.177-0.121-0.123-0.225
		c0.001-0.023-0.04-0.004-0.056-0.012c-0.347-1.23-1.539-2.777-1.57-4.037c0.003-0.023-0.033,0.002-0.034,0.01
		c-0.155-0.116-0.271-0.84-0.415-0.818c-0.048-0.215-0.018-0.443,0.111-0.628c0.218,0.034,0.449,0.478,0.428,0.628
		c0.161,0.152,0.826,0.941,0.762,1.211c0.354,0.417,1.732,1.703,1.829,2.165c0.036-0.002,0.048,0.021,0.089,0.011
		c0,0.018,0.232,0.271,0.28,0.336c0.026,0,0.052,0,0.079,0c0.012,0.032,0.053,0.073,0.021,0.112c0.02,0,0.039,0,0.057,0
		c-0.025,0.126,0.08,0.121,0.09,0.213c0.113,0.019,0.193,0.067,0.303,0.101c-0.008,0.047,0.036,0.039,0.021,0.09
		c0.73-0.174,2.709,1.877,3.736,1.918c0.146,0.422,1.922,0.766,2.311,0.785c0.098,0.188,0.154,1.65-0.258,1.594
		c-0.079,0.506-0.4,1.029-0.517,1.548c-0.036,0.01-0.034-0.019-0.056-0.022c0.064,0.157,0.031,0.266-0.102,0.325
		c-0.002,0.044,0.059,0.024,0.057,0.067c0.007,0.055-0.061,0.037-0.067,0.078c-0.008,0.031,0.023,0.021,0.034,0.035
		c-0.148,0.194-0.202,0.422-0.156,0.684c-0.011,0.009-0.025,0.012-0.046,0.011c0.126,0.302,0.089,0.522-0.112,0.662
		c0.234,0.481,0.26,1.627,0.381,2.209c-0.014,0.015-0.018,0.004-0.033,0c0.031,0.113,0.035,0.134,0.056,0.269
		c0.017,0.272,0.404,1.058,0.64,1.224c0.58,0.073,1.336,0.05,1.916,0.101c4.731,0.379,3.001-1.92,4.768-4.127
		c-0.13-0.6-0.39-1.283-0.494-1.908c-0.011-0.031-0.047,0.004-0.067,0c-0.726-1.033-1.689-1.881-2.41-2.838
		c0.045-0.057,0.102-0.08,0.168-0.066c0.016-0.076-0.053-0.068-0.045-0.135c0.144-0.021,0.986,0.131,0.998,0.09
		c0.707-0.532,2.101-0.465,2.918-1.043c0.021,0.012,0.039,0.027,0.056,0.045c0.181-0.131,0.976-0.857,1.179-0.807
		c0.006-0.091,0.411-0.308,0.504-0.371c0.021-0.002,0.024,0.015,0.045,0.012c0.139-0.037,0.449-0.441,0.539-0.561
		c0.151,0,0.166-0.216,0.291-0.225c0.045-0.003,0.059,0.102,0.123,0.057c-0.096-0.293,0.713-0.943,0.874-1.145
		c0.032-0.01,0.029,0.016,0.058,0.011c0.146-0.153,0.496-0.521,0.55-0.751l0.017,0.005L37.531,2.86z M20.067,7.998
		c0.057,0.097,0.041,0.187-0.045,0.271c0.359,0.185-0.414,2.188-0.74,2.457c-0.002-0.014-0.021-0.011-0.034-0.013
		c-0.049,0.132-0.206,0.356-0.303,0.427c-0.011,0.051,0.019,0.063,0.022,0.102c0.258,0.056,0.473-0.1,0.685-0.067
		c0,0.019,0,0.037,0,0.056c0.045,0.002,0.052,0.026,0.112,0.035c0.006-0.035,0.018-0.065,0.057-0.068
		c0.021,0.021,0.04,0.043,0.045,0.08c0.336-0.018,0.588-0.004,0.919,0.135c0.017-0.021,0.037-0.038,0.056-0.057
		c0.115,0.041,1.402,0.621,1.469,0.605c0.002-0.02-0.014-0.023-0.01-0.045c0.021,0.005,0.02,0.031,0.055,0.021
		c0.039-0.219,0.058-0.438,0.057-0.662c0.15-0.041,0.109-0.637,0.234-0.773c-0.002-0.258,0.594-1.221,0.349-1.469
		c-0.349-0.059-0.862-0.295-1.245-0.348c-0.12,0.008-0.759-0.31-0.796-0.235c-0.049-0.022-0.083-0.038-0.079-0.091
		c-0.023,0.015-0.059,0.018-0.079,0.035c-0.12-0.133-0.557-0.494-0.718-0.494c0.014,0.043,0.003,0.068-0.027,0.072l0.006,0.018
		C20.027,7.987,20.02,7.968,20.01,8c0.017,0.013,0.027,0.013,0.045,0l0.004,0.017L20.067,7.998z M36.352,10.006
		c0.058-0.385-0.326-1.04-0.336-1.491c0,0,0.022-0.011,0.022-0.012c0.411-1.007-1.349,0.131-1.66,0.247
		c-0.106,0-0.282,0.044-0.337,0.056c-0.021,0.145-0.261,0.16-0.37,0.146c0.013,0,0.015,0.02,0,0.021
		c-0.077-0.027-0.149-0.004-0.212,0.067c0.128,0.588,0.965,1.038,0.965,1.638c0.034-0.002,0.066,0,0.078,0.022
		c0.045,0.163,0.098,0.375,0.112,0.549c-0.013,0.001,0.372-0.194,0.336-0.157c0.206-0.119,0.507-0.371,0.739-0.404
		c0.291-0.002,0.543-0.16,0.82-0.225C36.582,10.188,36.529,10.035,36.352,10.006C36.361,9.949,36.355,10.021,36.352,10.006z
		 M29.438,19.108l0.017,0.006c-0.002,0.009-0.011,0.011-0.011,0.021c0.02,0.008,0.066-0.013,0.066,0.012
		c0.045,0.164,0.053,0.332,0.023,0.504c0.006,0.021,0.053,0,0.056,0.023c0.023,0.084-0.003,0.131-0.079,0.146
		c0.105,0.136-0.16,1.166-0.033,1.211c0.34-0.678,0.582-1.387,0.886-2.064c0.026,0.002,0.034,0.021,0.056,0
		c-0.292-0.82,1.289-1.367,0.258-1.783c0,0.019,0.006,0.043-0.012,0.045c-0.078-0.06-0.137-0.051-0.179,0.022
		c-0.03,0.004,0.01-0.063-0.034-0.045c0.003,0.041-1.23,0.272-1.424,0.313c-0.018,0.227,0.339,1.115,0.471,1.279
		c-0.016,0-0.031-0.002-0.034,0.012C29.536,18.921,29.523,19.028,29.438,19.108z M27.525,17.397c-0.534,0.08-1.194-0.223-1.726-0.09
		c-0.156,0.151,0.331,0.877,0.381,1.032c-0.004,0.021-0.043,0.009-0.035,0.046c0.66,0.233,0.515,1.987,1.156,2.366
		c0.092-0.907,0.049-2.114,0.548-2.905c0.02-0.004,0.021,0.01,0.035,0.01c-0.045-0.32,0.168-0.481-0.347-0.477L27.525,17.397z
		 M33.123,21.056c-0.102-0.01-0.141-0.059-0.113-0.146c-0.516,0-1.104-2.504-1.109-2.995c-0.047-0.017-0.057-0.041-0.102-0.011
		c0,0.224-0.291,0.391-0.291,0.627c-0.277,0.068-0.511,1.039-0.595,1.279c-0.021,0.021-0.028,0.002-0.056,0
		c-0.071,0.217-0.166,0.485-0.235,0.707c-0.012,0-0.022,0-0.034,0c0,0.861-1.439,1.834-1.379,2.705
		c0.352,0.068,5.682,0.07,5.766,0.045c0-0.535-1.658-1.439-1.771-2.131C33.182,21.103,33.133,21.097,33.123,21.056
		C33.088,21.034,33.133,21.097,33.123,21.056z M25.821,19.619c-0.027-0.144-0.826-1.644-0.909-1.582
		c0.011,0.067,0.05,0.106,0.044,0.19c-0.146,0.162-0.447,1.027-0.527,1.246c0.012,0.025,0.062,0.012,0.08,0.033
		c0.006,0.163-0.261,0.838-0.281,0.932c-0.016,0-0.024-0.006-0.033-0.012c-0.002,0.305-0.534,1.225-0.729,1.447
		c-0.015-0.001-0.017-0.016-0.033-0.012c-0.002,0-0.297,0.462-0.258,0.449c-0.052,0.031-0.066-0.02-0.113-0.022
		c0.008,0.257-0.073,0.159-0.066,0.28c0.023,0.006,0.032,0.027,0.066,0.021c0.098-0.014,0.41-0.15,0.472-0.201
		c0.12,0.012,0.231-0.011,0.337-0.068c0.009,0.003,0.014,0.01,0.011,0.021c0.412-0.314,1.623-0.098,2.064,0c0,0.016,0,0.03,0,0.045
		c0.251-0.086,0.837,0.193,0.987,0.416c0.043,0.002,0.033-0.049,0.078-0.045c0.161,0.076,0.403,0.127,0.582,0.168
		c0.086-0.742-1.275-2.791-1.715-3.299C25.85,19.634,25.833,19.628,25.821,19.619C25.803,19.524,25.833,19.628,25.821,19.619z
		 M44.497,22.412c-0.241-0.253-0.467-0.742-0.752-0.953c-0.415,0.292-0.64,0.968-0.874,1.392c-0.016,0-0.018-0.015-0.034-0.012
		c-0.021,0.055-0.716,1.122-0.842,1.032c-0.054,0.146-0.162,0.235-0.324,0.269c-0.024-0.035,2.238,2.087,2.435,2.166
		c0.166-0.008,0.185-0.16,0.189-0.258c0.309-0.191,0.26-0.713,0.538-0.908c0.003,0.012,0.019,0.012,0.034,0.012
		c0.035-0.043,0.068-0.09,0.102-0.135c0.014,0,0.016,0.014,0.033,0.01c0.043-0.066,0.062-0.162,0.135-0.201
		c0.01,0.031,0.019,0.064,0.066,0.057c0.051-0.039,0.02-0.074,0.012-0.135c0.1,0.006,0.16-0.051,0.18-0.167
		c0.054-0.004,0.094,0.005,0.113,0.033c0.275-0.209,0.508-0.307,0.829-0.481c-0.008,0.037,0.019,0.041,0.046,0.044
		c0.043-0.105,0.236-0.061,0.312-0.135c0-0.021,0-0.045,0-0.066C46.67,23.935,44.643,22.412,44.497,22.412
		C44.371,22.28,44.518,22.412,44.497,22.412z M11.339,21.874c-0.03,0.008-0.022-0.021-0.045-0.023
		c0.078,0.153-0.327,0.576-0.381,0.674c0.008,0.029,0.051,0.023,0.058,0.056c-0.022,0.129-0.091,0.179-0.203,0.146
		c-0.076,0.233-0.508,0.525-0.539,0.629c-0.053-0.01-0.514,0.445-0.526,0.494c0.042,0.051,0.097,0.09,0.146,0.135
		c0.008,0.035-0.031,0.021-0.021,0.057c0.178-0.021,0.458,0.238,0.482,0.357c0.088,0.004,0.336,0.357,0.336,0.416
		c0.373,0,0.564,0.979,0.763,1.154c0.096-0.08,0.2-0.117,0.313-0.111c0.111-0.787,1.272-1.716,1.94-1.953
		c0.051-0.088,0.115-0.166,0.19-0.234c-0.09-0.197-0.229-0.34-0.414-0.427c-0.019,0.028-0.008,0.083-0.057,0.079
		C13.118,23.213,11.46,21.763,11.339,21.874C11.309,21.882,11.414,21.806,11.339,21.874z M27.615,24.958
		c0.004-0.025-0.002-0.041-0.021-0.045c-0.078,0.311-0.635,0.711-0.875,0.74c-0.043,0.012-0.041-0.025-0.068-0.033
		c-0.82,0.605-2.454,0.271-3.42,0.168c-0.018,0.223,2.041,4.088,1.884,4.117c-0.011,0.104,0.028,0.193,0.124,0.27
		c0.252-0.156,0.222-0.398,0.415-0.572c0.292-1.668,1.815-3.02,2.052-4.701C27.637,24.883,27.672,24.967,27.615,24.958
		C27.618,24.932,27.672,24.967,27.615,24.958z M33.964,25.631c-0.09,0.018-0.282,0.049-0.37,0c-0.027,0.014,0.006,0.088-0.021,0.1
		c-0.434-0.006-0.878,0.117-1.303,0.137c-0.018-0.092-0.084-0.125-0.201-0.104c-0.035,0-0.012,0.059-0.045,0.057
		c-0.506-0.037-1.289-0.211-1.717-0.492c0.002,0.023-0.008,0.035-0.033,0.033c-0.127-0.043-0.322-0.129-0.449-0.189
		c0.003,0.254,0.093,0.443,0.27,0.572c-0.013,0.014-0.013,0.041-0.023,0.057c0.102,0.109,0.458,0.691,0.449,0.797
		c-0.024,0.125,0.224,0.668,0.27,0.797c0.048-0.027,0.045-0.055,0.123-0.035c0.154,0.223,0.505,0.848,0.516,1.111
		c0.229-0.025,0.769,1.814,1.1,1.918c0.089-0.123,0.287-1.166,0.291-1.256c-0.127-0.125,0.051-0.217,0.09-0.303
		c0.008-0.049-0.032-0.051-0.034-0.09c0.142-0.01,0.085-0.232,0.103-0.314c0.045-0.008,0.062,0.012,0.101,0.012
		c0.015-0.064-0.044-0.061-0.067-0.09c0.166-0.207,0.244-0.457,0.236-0.75c0.03-0.002,0.021,0.02,0.045,0
		c0.028-0.414,0.421-0.889,0.661-1.145c-0.071-0.322,0.151-0.275,0.258-0.404c0.015-0.047,0.613-0.691,0.539-0.842
		c-0.003,0-0.696,0.312-0.673,0.293C34.114,25.59,34.028,25.618,33.964,25.631C33.889,25.647,34.028,25.618,33.964,25.631z
		 M29.354,26.899c0.289,0.672,0.119,1.695-0.225,2.197c0.016,0.031,0.083,0.008,0.09,0.045c-0.152,0.33-0.586,0.977-0.595,1.346
		c0.292,0.061,2.996,0.609,3.151,0.461c-0.084-0.824-1.139-1.656-1.1-2.379c-0.045-0.004-0.018,0.066-0.066,0.059
		c-0.096-0.334-0.506-0.547-0.506-0.943c-0.152,0.021-0.66-1.115-0.773-1.301C29.312,26.583,29.446,26.749,29.354,26.899
		C29.373,26.944,29.446,26.749,29.354,26.899z M27.358,27.079c0.15,1.287-1.862,2.711-1.706,4.094
		c0.655-0.248,1.354-0.367,1.997-0.627c0.049-0.143-0.765-2.971-0.27-2.861c-0.114-0.252-0.077-0.518,0.112-0.795
		C27.403,26.877,27.358,26.94,27.358,27.079C27.365,27.137,27.41,27.034,27.358,27.079z M34.737,35.377
		c-0.062-0.012-0.095-0.051-0.146-0.021c0.022,0.4-0.012,0.814,0.012,1.189c-0.104,0.188-0.741,1.773-0.764,1.783
		c0.165-0.127,0.424-0.195,0.617-0.045c-0.007-0.074,0.043-0.094,0.078-0.125c0.223,0.176,0.48,0.221,0.773,0.135
		c0.022-0.016-0.004-0.078,0.035-0.078c0.082,0.037,0.086,0.152,0.18,0.18c0.041-0.006,0.054-0.043,0.078-0.066
		c0.055,0.02,0.101,0.051,0.135,0.09c0.008-0.303,0.945,0.33,0.986,0.336c0.104-0.115,0.785-2.957,0.752-3.049
		c-0.186-0.061-1.248,0.115-1.492,0.135c-0.094,0.02-0.229,0.041-0.313,0.02C35.447,35.727,34.993,35.434,34.737,35.377
		C34.676,35.366,34.821,35.397,34.737,35.377z M22.971,38.227c-0.101-0.152-0.182-0.537-0.156-0.707
		c-0.023-0.025-0.045,0.018-0.067-0.01c-0.19-0.283,0.017-0.777-0.034-1.078c-0.391-0.066-0.126,0.184-0.527,0.246
		c-0.025,0.068-0.404,0.393-0.504,0.393c0-0.023-0.559,0.438-0.572,0.439c0.011-0.012-0.62,0.209-0.641,0.189
		c-0.029,0.027,0.026,0.012,0.012,0.057c-0.176,0.016-0.635,0.064-0.795,0.145c-0.08,0.162,0.095,0.391,0.201,0.482
		c-0.004,0.031-0.059,0.016-0.045,0.066c0.024,0.023,0.033-0.016,0.067-0.012c0.198,0.119,0.542,1.156,0.55,1.211
		c0.074,0.275,0.211,0.912,0.135,1.189c-0.031,0.023-0.054,0.059-0.09,0.078c0.014,0.043,0.055,0.057,0.067,0.102
		c0.179-0.002,0.204-0.246,0.403-0.234c0.014-0.094,0.069-0.148,0.168-0.168c0.045,0,0.047,0.043,0.067,0.066
		c0.033-0.041-0.016-0.096,0.011-0.135c0.18,0,0.162-0.088,0.258-0.146c0.104-0.09,0.619-0.373,0.797-0.381
		c-0.002,0.029,0.005,0.047,0.035,0.045c0-0.021,0-0.045,0-0.066c0.373-0.029,0.683-0.252,1.065-0.168
		c0.086-0.178,0.263-0.219,0.527-0.125c0.024-0.031,0.034-0.055,0.022-0.102c-0.428-0.189-0.775-0.98-0.91-1.367
		c0.004,0,0.008,0,0.012,0c0.002-0.037,0.023-0.07-0.012-0.09c0.008,0.035-0.012,0.041-0.011,0.066l-0.021-0.006L22.971,38.227z"/>
</g>
</svg>
