<?xml version="1.0" encoding="utf-8"?>
<!-- Generator: Adobe Illustrator 16.0.4, SVG Export Plug-In . SVG Version: 6.00 Build 0)  -->
<svg version="1.2" baseProfile="tiny" id="Layer_1" xmlns="http://www.w3.org/2000/svg" xmlns:xlink="http://www.w3.org/1999/xlink"
	 x="0px" y="0px" width="54px" height="59.449px" viewBox="0 0 54 59.449" xml:space="preserve">
<path fill="#648C1A" d="M28.672,0.017c1.278,1.303-0.028,5.725,2.08,6.373c0.03,0.041,0.032,0.086-0.021,0.127
	c0.074-0.01,0.146-0.039,0.203-0.022c0.646,0.162-0.338,1.248-0.539,1.216c-0.061-0.005-0.027-0.043-0.05-0.061
	c-1.133,0.289-2.204,2.666-1.991,3.785c0.672-0.854,8.152-6.32,8.912-5.92c-0.398,0.81-2.291,2.787-3.229,3.16
	c-0.062,0.27-2.506,2.703-2.963,2.838c-0.594,0.729-2.461,1.92-2.508,2.643c-0.592,0.398-0.225,1.529-0.445,2.146
	c0.154,0.082,9.328-8.318,9.626-9.102c-0.347-0.051-4.771,7.462-5.89,8.023c-0.701,1.233-1.9,2.424-2.768,3.545
	c-1.46,1.847-0.871,2.318-0.835,4.24c-0.015,0.041-0.032,0.077-0.06,0.088c0.012,0.053,0.031,0.104,0.113,0.131
	c-0.119,0.207-0.08,0.432,0.114,0.668c0.709-1.588,1.304-2.764,1.591-4.547c0.239-1.44,0.799-1.59,1.704-2.82
	c1.229-1.719,2.943-3.094,4.231-4.719c1.266-2.438,4.859-3.961,5.916-6.53c-0.041-0.035,3.808-4.157,3.897-4.239
	c0.731,0.467-6.29,10.555-6.679,11.628c-0.38,1.084-3.902,9.212-5.562,9.08c-0.009-0.094,0.123-0.112,0.08-0.213
	c-0.754-0.147-1.992,0.211-2.709,0.354c-0.404,0.185-1.693,2.133-1.748,2.625c-0.008,0.055-0.051,0.01-0.08,0.002
	c0.002,0.058-0.035,0.049-0.027,0.103c0.785,0.446,3.406-1.573,4.279-1.674c1.123-1.636,2.305-3.862,3.729-5.3
	c2.479-2.601,3.402-6.689,5.921-9.225c0.027-0.01,0.063,0.008,0.103,0.028c0.318-0.488,0.479-0.903,0.69-1.417
	c0.058,0.035,0.05,0.043,0.103,0.029c0.396-0.4,0.972-1.514,1.281-2.07c0.405,0.244-5.746,14.05-6.797,15.432
	c0.176,0.027,0.325-0.046,0.447-0.218c0.005-0.024-0.027-0.015-0.039,0.001c-0.025-0.048,0.066-0.083,0.072-0.158
	c0.046-0.002,0.041,0.022,0.094,0.004c1.438-1.211,3.225-4.731,3.975-6.459c0.836-1.947,2.195-3.757,3.229-5.627
	c0.037,0.02,0.059-0.006,0.104,0.029c-0.117,0.452-0.56,0.98-0.582,1.43c-0.391,3.197-3.358,6.139-3.865,9.358
	c0.135-0.149,0.267-0.185,0.396-0.106c0.039-0.139,0.266-0.16,0.361-0.199c0.013,0.029,0.011,0.062,0.056,0.045
	c0.022-0.049,0.079-0.029,0.123-0.098c0.019,0.014,0.011,0.041,0.033,0.053c0.172-0.139,1.448-0.494,1.403-0.703
	c-0.033-0.035-0.101,0.014-0.098-0.043c0.844-1.08,1.459-2.176,1.9-3.5c2.101,1.037,6.047,0.184,7.919-0.963
	c0.067,0.029,0.057,0.086,0.121,0.115c-0.283,0.957-1.56,1.03-1.931,1.809c-1.748,0.886-1.862,2.303-2.511,3.818
	c-0.563,0.385-2.835-0.162-3.43-0.461c-0.763,0.332-4.204,0.428-4.472,1.545c0.151,0.146,1.6,0.529,1.82,0.529
	c2.068,0.629,5.266,0.779,7.131,1.932c0.008,0.035,0.017,0.071-0.021,0.125c0.039,0.012,0.08,0,0.095,0.045
	c-0.001,0.056-0.03,0.121-0.071,0.158c-1.496,0.043-12.593-1.596-12.949-0.504c0.095,0.17,1.634,0.262,1.811,0.254
	c0.676,0.219,11.266,2.256,11.331,3.27c-0.537,1.343-10.194-1.246-11.584-0.996c-1.958-1.576-6.75-0.723-8.153,1.221
	c1.334,0.821,2.604-0.859,3.658-1.207c0.012-0.031-0.05-0.035-0.05-0.062c0.085-0.055,0.216,0.013,0.288-0.079
	c0.01-0.035-0.069-0.036-0.066-0.069c0.053-0.046,0.032-0.078,0.074-0.119c0.071,0.075,2.898,0.729,3.208,0.608
	c0.636,0.515,1.931,0.433,2.716,0.634c0.711,0.324,3.537,0.325,3.987,0.969c1.715,0.596,4.038,0.492,5.894,0.762
	c0.01,0.07-0.086,0.111-0.119,0.178c-0.651-0.312-7.353-0.404-7.826,0.348c-1.413-0.848-9.252,3.54-9.252-0.289
	c-0.037-0.029-0.022,0.08-0.062,0.049c-0.876-0.539-1.526-0.853-2.674-0.846c0.396,1.002,1.791,2.186,2.429,2.932
	c0.062,0.035-0.021,0.041-0.005,0.094c2.304,0.78,5.392-1.199,7.62-0.639c1.105,0.385,3.254-0.891,4.54-0.531
	c0.295-0.198,3.993-0.579,4.313-0.328c0.242-0.008,0.645-0.262,0.828-0.043c0.053,0.004,0.074-0.023,0.074-0.081
	c0.2,0.202,0.252,0.004,0.438-0.03c0.066,0.025-0.008,0.037-0.014,0.071c0.162,0.077,0.713-0.07,0.784,0.014
	c-0.063,0.229-0.831,0.335-0.985,0.259c-0.035,0.049-0.071,0.092-0.105,0.146c-0.05-0.009-0.018-0.046-0.05-0.062
	c-0.31-0.047-6.161,0.961-6.265,1.512c-0.908-0.27-6.246,1.348-6.85,2.07c-0.01-0.012-0.009-0.023-0.023-0.031
	c-0.053,0.098-0.131,0.156-0.237,0.18c0.294,1.031,4.218-0.279,5.03-0.131c0.084,0.012,0.055,0.068,0.067,0.105
	c0.173-0.066,0.347-0.133,0.5-0.25c0.058,0.01,0.013,0.055,0.041,0.074c0.788,0.014,2.345-0.764,3.084-0.334
	c0.206,0.039,0.896-0.176,1.138-0.17c0.129,0.002,0.938-0.33,0.898-0.105c0.05,0.006-0.004-0.07,0.053-0.072
	c0.086,0.016,0.023,0.088,0.081,0.115c0.046-0.033,0.083-0.031,0.111,0.004l0.03-0.016c0.015,0.002,0.011,0.012,0.009,0.021
	c0.038,0.01,0.039-0.084,0.075-0.08c0.029,0.023,0.027,0.061,0.08,0.076c0.002-0.047,0.002-0.09-0.043-0.115
	c0.045-0.039,0.146,0.023,0.184,0.062c-0.016,0.031-0.03,0.064-0.045,0.096c0.05,0.02,0.632-0.324,0.626-0.311
	c0.039,0.012,0.06,0.029,0.071,0.053c0.047-0.051,0.084-0.127,0.16-0.102c-0.018,0.072-0.062,0.072-0.082,0.137
	c0.151,0.057,0.201-0.07,0.277-0.143c0.092-0.012,0.062,0.064,0.082,0.115c0.196-0.082,0.916-0.469,1.196-0.299
	c-0.021,0.072-0.068,0.076-0.097,0.129c0.071,0.041,0.108-0.016,0.182,0.027c-0.146,0.023-0.237,0.096-0.273,0.219
	c-0.066,0.023-0.018-0.07-0.098-0.084c-0.051,0.02-0.014,0.072-0.059,0.129c-0.039,0.066-0.021-0.047-0.088-0.021
	c-0.232,0.205-0.76,0.471-1.139,0.422c-0.021-0.027-0.033-0.059-0.033-0.094c-0.094,0.027,0,0.141-0.025,0.223
	c-0.293-0.062-2.896,1.375-3.256,1.084c-0.613,0.213-1.772,0.523-2.209,0.947c-0.457-0.105-1.4,0.629-1.728,0.402
	c-0.159,0.24-0.409,0.35-0.749,0.328c0.444,0.557,4.008,2.24,3.969,2.309c0.459,0.092,1.241-0.457,1.707-0.523
	c0.102-0.15,1.274-1.342,1.272-1.342l0.028,0.004l0.002-0.027c0.224,0.445,0.166,0.828,0.371,1.25
	c0.196-0.148-0.002-0.482,0.236-0.643c0.321,0.125-0.441,4.816,1.29,4.816c-0.024,0.035,0.015,0.049-0.021,0.086
	c0.238,0.242,0.978,0.482,1.113,0.766c-0.25,0.199-0.691-0.227-0.855-0.318c-0.467-0.129-1.79-0.535-2.315-0.371
	c0.013-0.48-2.174,0.896-2.557,0.615c-0.167,0.146-0.159,0.377-0.498,0.332c0.11-2.865-0.493-4.91-3.554-5.684
	c-0.049,0.854,0.549,3.703,1.065,4.383c0.238,0.967,1.388,3.492,1.108,4.459c-0.036,0.068-0.123,0.002-0.172,0.035
	c-0.02,0.057,0.015,0.094,0.035,0.133c0.066,0.037,0.103-0.01,0.164,0.018c-0.02,0.164,0.111,0.385,0.09,0.562
	c-0.027,0-0.041,0.014-0.039,0.041c-0.396-0.316-0.312-1.268-0.742-1.441c0.011-0.062,0.051-0.049,0.066-0.104
	c-0.14-1.141-1.496-3.703-2.209-4.621c-0.545-0.66-0.592-2.141-1.252-2.6c0.717-1.064-1.619-3.303-2.463-3.697
	c-0.127,0.193,0.853,2.764,1.014,3.203c0.031,1.504,0.871,2.893,1.13,4.375c0.43,1.006,0.396,2.322,0.925,3.221
	c-0.027,0.328,0.641,2.986,0.678,3.01c0.075,0.051,0.075-0.105,0.139-0.092c0.188,0.201,0.228,0.395,0.119,0.576
	c0.17,0.193,0.305,0.424,0.194,0.666c0.069,0.072,0.153,0.105,0.172,0.217c-0.015,0.074-0.075,0.025-0.098,0.088
	c0.008,0.023,0.017,0.049,0.024,0.07c0.064,0.035,0.035-0.047,0.053-0.072c0.057,0.051,0.08,0.111,0.093,0.178
	c-0.007,0.039-0.004,0.354-0.028,0.393c-0.06,0.023-0.078-0.029-0.148-0.01c-0.201-0.494-1.016-1.693-0.965-2.178
	c-0.168-0.092-0.228-0.242-0.181-0.449c-0.067-0.031-0.118-0.018-0.181-0.025c-0.018-0.049,0.033-0.061,0.061-0.088
	c-1.059-0.707-0.767-3.145-1.744-3.83c0.082-0.127-0.107-0.271-0.117-0.246c-0.012-0.334-0.098-0.416-0.293-0.578
	c0.904-1.307-3.465-5.195-2.81-6.594c-1.276-2.332-1.274-4.881-4.573-4.766c-0.037-0.012-0.045-0.037-0.025-0.07
	c-0.157-0.037-0.643-0.033-0.826-0.129c-0.012-0.029,0.012-0.085,0.044-0.096c-0.032,0.015-0.123-0.062-0.188-0.049
	c-0.135,1.668,2.227,2.377,3.332,2.805c0.069,0.002,0.026-0.074,0.084-0.096c0.762,1.051,0.467,4.303,1.479,4.959
	c-0.365,1.158,1.342,3.289,1.43,4.473c0.566,0.141,3.284,7.979,3.172,8.764c-1.312-1.055-2.508-3.895-3.316-5.396
	c-1.062-1.926-2.373-3.9-3.686-5.648c0.055-2.207-4.109-3.281-2.865-5.963c0.449-1.434-0.276-1.764-0.354-3.248
	c-0.146-0.006-0.521,0.775-0.583,0.848c-0.068-0.006-0.082-0.01-0.127-0.02c-0.314,0.545-0.695,1.123-1.049,1.695
	c-0.443,1.268,0.547,1.129,0.604,2.166c0.033,0.008,0.055-0.014,0.094,0.006c0.014,0.393,1.599,3.266,1.926,3.312
	c0.893,1.641,1.811,3.434,2.877,4.928c1.604,2.246,2.54,5.297,4.352,7.342c-0.01,0.037-0.029,0.037-0.047,0.055
	c0.04,0.053,0.086,0.102,0.172,0.137c-0.072,0.07-0.109,0.084-0.111,0.199c-1.021-0.348-2.549-2.803-2.865-3.787
	c-0.273,0.025-2.12-2.725-2.411-3.135c-0.412-0.58-1.733-2.766-2.385-3.023c0.063-0.213-2.335-3.367-2.813-3.646
	c-1.339,1.215,2.6,4.43,2.021,5.111c0.682,0.311,1.382,2.199,1.901,2.896c0.963,1.248,1.832,2.615,2.672,3.947l-0.021,0.025
	l0.015,0.029c-0.051,0.018-0.084,0.08-0.138,0.092c-0.539-0.297-0.603-0.787-1-1.098c-1.897-1.084-3.459-4.758-5.627-5.402
	c-0.394,0.854,0.269,3.436-0.386,4.023c-0.316,1.312,2.144,2.547,2.875,2.961c-0.129,0.17-0.271,0.361-0.123,0.521
	c0.078,0.039,0.098-0.09,0.188-0.029c-0.094,1.27-2.91,2.666-3.24,4.406c-0.244,1.268-0.291,2.91-0.808,4.098l-0.026-0.021
	l-0.028,0.016c-0.027-0.127-0.074-0.246-0.099-0.375c-0.027,0.027-0.051,0.027-0.067,0l-0.019,0.02
	c-0.141-2.469-0.576-4.783-1.553-7.016c-0.095-0.043-0.139,0.051-0.227,0.029c-0.069-0.068-0.74-0.953-0.729-1.01
	c1.032-0.652,2.703-2.213,2.976-3.41c0.152-0.609,0.668-3.459,0.404-3.979c-0.102-0.01-0.632,0.314-0.65,0.414
	c-0.219-0.174-6.135,3.148-6.625,3.713c-0.274-0.102-0.508,0.029-0.7,0.393l0.003-0.027l-0.027-0.004
	c0.291-0.551,0.953-0.756,1.252-1.254c0.803-0.018,7.676-7.693,6.771-8.564c-0.688,0.096-2.354,2.111-2.897,2.617
	c-1.598,1.477-3.154,3.355-4.854,4.682c-1.753,3.621-6.683,5.729-8.265,9.244c-0.047-0.012,0.053-0.08,0.006-0.094
	c-0.229,0.256-0.383,0.551-0.465,0.887c-0.035,0.01-0.08-0.238-0.254-0.156c0.045-0.635,0.274-2.143,0.549-2.619
	c0.076-0.131,0.224-0.068,0.357-0.105c-0.128-0.227-0.094-0.455,0.104-0.686c0.074,0.008,0.135,0.01,0.182,0.025
	c0.049-0.057-0.006-0.076,0.02-0.127c-0.02-0.055-0.06,0.021-0.119-0.033c0.043-0.143,0.108-0.217,0.131-0.326
	c0.064-0.014,0.064,0.008,0.135,0.043c-0.025-0.342,0.039-0.664,0.195-0.971c0.047-0.027,0.123,0.025,0.181,0.025
	c0.083-0.229,0.185-0.623,0.224-0.859c0.082,0.014,0.043,0.07,0.112,0.092c0.286-0.146,0.116-0.371,0.046-0.52
	c0.018-0.16,0.129-0.471,0.336-0.479c0.024-0.055-0.083-0.059-0.089-0.1c-0.011-0.225,0.554-1.377,0.687-1.535
	c0.053,0.01,0.055,0.01,0.095,0.045c-0.063-0.172-0.029-0.316,0.104-0.434l-0.004,0.027l0.02-0.021
	c0.018,0.018,0.012,0.041,0.033,0.055c-0.039-0.037-0.041-0.066-0.008-0.092l-0.027-0.002c-0.125-0.059,0.363-0.533,0.152-0.623
	c0.152-0.301,0.787-1.686,0.687-1.748c1.227-1.762,1.51-4.346,2.405-6.271c0.932-1.951,1.998-4.428,2.483-6.566
	c-1.171-0.109-3.343,5.869-3.604,6.705c-0.871,2.625-2.157,6.879-3.74,9.049c-0.012-0.016-0.027-0.021-0.049-0.02
	c-0.014-0.039,0.011-0.092-0.02-0.125c-0.234-0.043-0.388,0.094-0.457,0.406c0.817-2.385,1.725-4.65,2.379-7.098
	c0.646-2.408,0.938-5.07,1.605-7.51c-1.249,0.441-5.209,2.26-4.537,4.334c0.031,0.014,0.064,0.029,0.096,0.043l-0.021,0.027
	l0.016,0.027c-0.016,0.029-0.059-0.014-0.078,0.004c-0.046,0.088-0.037,0.152-0.001,0.213c0.097,0.068,0.138-0.012,0.22,0.023
	c-0.064,0.252-0.334,0.777-0.463,1.135c-0.342,0.104-0.445-0.648-0.52-0.799c-0.03-0.012-0.036,0.049-0.07,0.027
	c-0.859-1.152-2.968,0.137-3.973-0.287c-0.71-0.029-2.131,0.596-2.79,0.914c-0.21-0.045-0.202-0.195-0.388,0.129
	c-0.047,0.02-0.028-0.02-0.057-0.043c-0.238,0.045-0.129,0.111-0.42,0.037C0.706,39.007,0.288,39.423,0,39.494
	c-0.007-0.057,0.167-0.227,0.205-0.256c0.44-0.305,1.67-0.967,1.856-1.375c0.024-0.006,0.053-0.002,0.086,0.021
	c0.689-0.852,1.832-1.465,2.485-2.348c0.521-0.119,0.896-1.32,1.138-1.674c0.098,0.002,0.189-0.012,0.273-0.049
	c0.191-0.582-0.186-0.764,0.126-1.406c0.871,0.264,1.231,1.352,2.341,1.654c1.419,0.371,3.604-0.623,4.633-1.607
	c-1.658-0.73-3.459-2.375-5.273-2.657c-0.62-0.404-2.557-0.834-2.91-1.551c0.363-0.21,1.311,0.24,1.619,0.378
	c0.21,0.155,0.936-0.114,1.107,0.315c0.049-0.018,0.012-0.071,0.057-0.127c2.197,0.609,6.599,3.094,8.539,1.965
	c-2.889-1.874-7.577-1.856-10.086-4.217c0.007-0.047,0.031-0.1,0.004-0.133c-0.068-0.121-0.99-0.277-1.116-0.34
	c-0.024-0.058,0.062-0.023,0.036-0.08c-0.018-0.054-0.065-0.023-0.112-0.052c0.103-0.112,0.956,0.093,0.959,0.097
	c1.075-0.043,2.668,1.137,3.75,0.896c1.19,0.469,2.994,0.374,4.003,0.976c0.172,0.002,3.786,0.991,3.791,0.975
	c0.037-0.008,0.07-0.029,0.109-0.028c0.88,0.413,1.466,0.601,2.357-0.015c0.037-0.045-0.043-0.045-0.043-0.075
	c0.647-0.417,1.592-0.833,2.113-1.244c0.07-0.069,0.559-0.539,0.736-0.509c-0.006,0.087,0.048,0.125,0.16,0.113
	c0.094-0.097-0.027-0.211,0.078-0.254c-0.315-1.379-3.139,1.346-3.39,1.291c-0.054-0.037-0.088-0.082-0.112-0.129
	c-0.233,0.072-0.387,0.461-0.699,0.219c0.022-0.035,0.062-0.051,0.045-0.096c-0.325-0.002-0.598-0.121-0.818-0.357
	c0.01-0.053,0.049-0.033,0.061-0.088c-0.213-0.069-0.285-0.157-0.5-0.162l-0.03,0.015c-0.087-0.003-0.003-0.069-0.034-0.092
	c-0.094-0.052-0.152-0.003-0.202,0.062c-0.688-0.27-6.731-1.162-6.912-1.523c-0.026-0.008-0.512,0.134-0.433-0.062
	c-0.578-0.138-3.555-0.135-3.795-0.591c0.111,0.026,0.05-0.056,0.111-0.12c0.145-0.003,0.338,0.248,0.486,0.031
	c0.075,0.059,0.193,0.021,0.199,0.111c0.003,0,0.775-0.025,0.809-0.168c0.035,0.021,0.057,0.049,0.081,0.076
	c0.062-0.006,0.044-0.05,0.067-0.104c0.083,0.047,0.25,0.092,0.29-0.041c0.124,0.047,0.891,0.172,0.999,0.133
	c1.449-0.217,8.281,0.494,9.18-1.021c0.051-0.066-0.055-0.075-0.012-0.139c0.156-0.154,0.615-0.027,0.777,0.027
	c-0.045-0.167-0.146-0.271-0.301-0.312c0.709-0.865,2.535,2.25,3.404,1.816c-0.171-0.346-0.662-1.266-0.98-1.512
	c-0.197-0.16-1.037-0.781-1.404-0.801c-0.676,0.232-1.588,0.076-2.35,0.289c-0.064-0.016-0.007-0.078-0.05-0.102
	c-0.284,0.055-0.794,0.029-0.872,0.178c-0.349-0.049-1.308,0.077-1.521-0.084c-0.121,0.125-0.317,0.045-0.459,0.116
	c-0.057-0.01,0.004-0.063-0.041-0.077c-1.865,0.346-5.262-0.229-6.909,0.694c-0.902-0.688-4.188,0.53-5.452,0.247
	c-0.032-0.053,0.031-0.145,0.062-0.221c0.772-0.213,1.674-0.098,2.392-0.424c0.308,0.202,0.748-0.221,1.021-0.166
	c0.049-0.018,0.088-0.07,0.131-0.113c0.062,0.072,0.156,0.053,0.213,0.119c0.053-0.069-0.018-0.09,0.035-0.158
	c0.396,0.373,4.75-0.609,5.377-0.879c0.502,0.422,4.955-0.971,5.804-1.221c-0.013-0.059-0.013-0.119-0.036-0.173
	c-0.091-0.071-0.332-0.188-0.393-0.237c-0.012-0.065-0.043-0.125-0.114-0.17c-1.037-0.502-6.607,1.424-6.952,0.828
	c-0.749,0.41-6.525,1.688-7.534,1.18c0.513-0.471,1.491-0.276,1.91-0.797c0.468-0.224,2.522-0.463,2.676-0.793
	c0.109,0.084,0.228,0.094,0.354,0.028c0.052-0.071-0.061-0.083-0.029-0.147c0.188,0.058,0.298,0.012,0.333-0.135
	c0.085-0.01,0.058,0.074,0.144,0.066c0.073-0.049-0.033-0.053,0.02-0.128c0.102,0.043,0.193,0.104,0.268,0.008
	c0.06-0.073-0.021-0.097,0.016-0.165c0.072,0.018,0.072,0.062,0.137,0.083c0.256-0.394,0.102,0.013,0.343-0.073
	c0.011-0.041-0.062-0.048-0.057-0.084c0.046-0.068,0.112-0.074,0.168-0.115c0.048,0.043,0.058,0.102,0.083,0.152
	c0.068-0.037-0.038-0.104,0.002-0.172c1.523,0.372,3.615-1.938,5.169-1.514c0.013-0.107-0.842-0.68-0.86-0.686
	c-0.049-0.021-0.115,0.021-0.174-0.002c-0.01-0.029,0.008-0.068,0.036-0.078c-1.451-0.308-2.713-1.092-4.362-0.238
	c-0.025,0.063,0.039,0.093,0.004,0.156c-0.08-0.043-0.219-0.191-0.328-0.207c-0.113,0.266,0.207,0.371,0.068,0.647
	c-0.611-0.417-1.523-2.479-1.191-3.229c-0.299-0.938-1.111-1.791-1.844-2.484c0.012-0.062,0.049-0.061,0.075-0.082
	c-0.104-0.027-0.024-0.122-0.122-0.152c-0.066-0.029-0.025,0.122-0.098,0.129c-0.042-0.01-0.502-0.285-0.545-0.367
	c0.057-0.049,0.143-0.02,0.193-0.084c0.002-0.108-0.433-0.242-0.351-0.412c-0.035-0.021-0.039,0.037-0.069,0.026
	c-0.113-0.057-0.203-0.122-0.281-0.188c-0.1-0.055-0.611-0.33-0.633-0.426l0.031-0.008l0.006-0.033
	c0.215-0.021,0.367,0.068,0.455,0.27c0.059-0.002,0.018-0.077,0.051-0.111c0.354,0.023,0.391,0.438,0.809,0.295
	c0.07,0.109,0.205,0.195,0.236,0.32c0-0.057,0.026-0.105,0.074-0.119c0.172,0.582,0.635-0.48,0.946,0.454
	c-0.011,0.077-0.036,0.082-0.091,0.113c0.057,0.022,0.087-0.029,0.141-0.013c0.034-0.062,0-0.097,0.034-0.156
	c0.078-0.035,0.144,0.035,0.187-0.03c0.064,0.149,0.189,0.241,0.377,0.271c0.039-0.076-0.105-0.084-0.037-0.172
	c0.209,0.023,0.314,0.176,0.363,0.301c0.588-0.166,1.877,0.826,2.451,0.494c0.137-0.25,0.219-0.553,0.656-0.295
	c0.793-0.756,1.473,3.383,2.266,3.701c0.008,0.032,0,0.049-0.029,0.062c0.111-0.027,1.766,1.324,1.744,1.361
	c0.451-0.021,0.728,0.48,1.108,0.606c-0.168-0.743-0.864-4.247-0.423-4.606c-0.016-0.029-0.03-0.035-0.055-0.006
	c-0.075-0.139-0.059-0.246,0.052-0.322c-0.321-0.117-0.291-3.168-0.402-3.731c-0.153-0.209-0.512-3.683-0.413-4.256
	c0.77,0.239,1.514,4.844,1.663,5.641c0.169,0.281,0.228,0.822,0.251,1.214c0.043,0.033,0.045-0.047,0.094,0.004
	c-0.035,0.071,0.03,0.104-0.002,0.172c0.021,0.054,0.074-0.008,0.135,0.043c-0.016,0.076-0.068,0.055-0.108,0.066
	c0.337,0.954,1.216,2.868,1.08,3.85c0.196,0.018,0.812,4.229,1.446,3.729c-0.047-2.524-2.211-6.077-1.721-8.403
	c-0.182-0.065-0.125-0.219-0.199-0.324c0.01-0.047,0.047-0.017,0.062-0.047c-0.139-0.119-0.153-0.24-0.043-0.367
	c-0.03-0.023-0.041,0.009-0.054,0.031c0.07-0.524-1.122-2.387-0.545-2.754c0.013-0.031-0.062-0.007-0.094-0.045
	c0.029-0.21,0.066-0.279-0.123-0.363c0.055-0.08,0.008-0.147,0.039-0.252c-0.069,0.178-0.1-0.588-0.151-0.34
	c0.3,0.072,0.185,0.301,0.258,0.485c0.026,0.052,0.075-0.009,0.112,0.051c0.027,0.054-0.059,0.069-0.034,0.118
	c-0.009,0.043,0.099,0.043,0.096,0.083c-0.014,0.03-0.028,0.063-0.044,0.097c1.475,0.195,1.609,6.42,2.998,6.678
	c0.046,1.674,1.583,4.209,2.232,5.74c0.625,1.473,2.029,2.676,3.869,2.482c0.129-1.244-1.311-1.885-2.308-1.854
	c-0.019,0.037,0.007,0.06-0.028,0.104c-2.104-0.602-1.738-6.96-3.553-8.107c-0.384-1.455-1.332-2.998-2.113-4.289
	c0.11-0.443-1.139-2.986-1.568-3.246c0.023-0.197-1.116-1.701-0.707-1.982c0.91,0.406,1.424,1.859,2.334,2.172
	c0.574,0.248,2.996,2.579,3.15,3.204c1.238,0.606,3.89,3.293,4.42,4.463c0.683,0.429,1.904,2.419,2.729,2.45
	c-0.011-0.039-0.077-0.016-0.082-0.076c0.04-0.038,0.102,0.01,0.092-0.072c-0.033-0.012-0.129-0.039-0.091-0.139
	c0.047-0.084,0.041,0.072,0.103,0.027c0.069-0.397-0.053-0.709,0.104-1.107c0.006-0.046-0.077,0.02-0.08-0.037
	c-0.019-0.054,0.027-0.132,0.032-0.197c-0.021-0.062-0.059,0.023-0.109-0.011c0.018-0.047,0.055-0.101,0.041-0.134
	c-1.197-0.583-2.228-2.553-3.314-3.434c-1.797-1.467-4.663-3.477-5.903-5.434l0.032-0.008l0.005-0.032
	c0.071,0.218,1.196,0.55,1.383,0.657c1.235,0.71,2.218,1.913,3.524,2.545c0.427,0.498,3.99,2.936,4.38,2.96
	c-0.025-0.164,0.03-0.299,0.168-0.405c0.269-0.94-0.274-2.244-0.88-3.025c-0.105-0.133-2.055-2.299-0.885-2.141
	c0.789-0.822,2.347-2.348,2.123-3.609C28.168,2.269,28.206,0.472,28.612,0C28.636,0.019,28.651,0.024,28.672,0.017z M27.828,6.123
	c-0.265,0.349-0.888,0.416-1.121,0.718c0.188,0.162,1.543,1.338,1.401,1.686c0.246-0.068,1.015-1.607,1.17-1.87
	c-0.203-0.173-0.705-0.87-0.901-0.974C28.217,5.89,28.04,6.058,27.828,6.123C27.713,6.276,28.04,6.058,27.828,6.123z M48.265,16.28
	c-0.314-0.074-0.646,0.011-0.976-0.141c0.003-0.004-1.021,1.34-1.021,1.34c0.967,0.591,1.908-0.532,2.469-1.137
	C48.614,16.259,48.429,16.319,48.265,16.28C48.214,16.267,48.429,16.319,48.265,16.28z M16.577,6.535
	c0.047,0.601,1.646,2.708,1.947,2.843c0.248,2.014,3.102,3.676,3.754,5.581c1.107,0.658,1.809,3.07,2.916,3.464
	c0.367,0.883,0.93,1.498-0.062,2.477c-0.043,0.58,0.063,1.793,0.858,2.072c0.9-2.379,1.24-2.438,0.02-4.481
	c-0.645-1.64-2.503-3.738-3.724-4.931c-1.048-1.076-2.044-3.133-3.349-3.951c0.022-0.424-2.33-3.156-2.468-3.219
	C16.423,6.468,16.508,6.498,16.577,6.535C16.583,6.606,16.508,6.498,16.577,6.535z M34.733,15.7c0.121,0.354-2.195,1.791-2.49,2.188
	c0.068,0.293-1.729,1.566-0.979,1.92c0.455-0.229,1.393-0.42,1.883-0.406c0.695-1.303,1.147-2.686,1.789-4.014
	C34.866,15.492,34.787,15.558,34.733,15.7C34.714,15.644,34.787,15.558,34.733,15.7z M23.114,17.541
	c-0.871-0.444-1.31-2.157-2.209-2.655c0.302,0.717,0.617,1.793,1.064,2.418c0.018,0.364,0.438,2.684,0.733,3.017
	c0.407,0.071,0.729,0.233,1.194,0.338c-0.002-0.142,0.063-0.246,0.2-0.312c0.037,0.017,0.074,0.033,0.111,0.049
	c0.054-0.096,0.222-0.262,0.271-0.336c0.166,0.136,0.301-0.987-0.291-1.465c0.012-0.029,0.035-0.023,0.047-0.056
	c-0.01-0.011-0.287-0.312-0.349-0.334c-0.063-0.051-0.63-0.647-0.663-0.651c-0.051-0.043-0.047,0.065-0.093,0.033
	C23.14,17.567,23.135,17.552,23.114,17.541z M35.726,25.772c-0.629-0.299-1.263,0.847-1.787,1.162
	c0.153,0.142,0.662,0.863,0.633,0.928c0.138,0.091,0.211,0.227,0.217,0.408c-0.02-0.037,2.779-1.116,3.021-1.289
	c-0.599-0.357-1.531-0.771-2.08-1.131C35.72,25.798,35.78,25.8,35.726,25.772C35.627,25.726,35.78,25.8,35.726,25.772z
	 M9.026,16.243c0.133,0.041,0.231,0.009,0.293-0.098c0.127,0.121,1.099,0.033,1.136-0.035c0.032-0.148-0.183-0.359-0.089-0.562
	c-0.246-0.209-0.055-0.843-0.354-0.99c-0.214-0.108-1.518,0.193-1.65,0.319c0.176,0.044,0.334,0.272,0.111,0.302
	c-0.037-0.101-0.143-0.246-0.283-0.266c0.053,0.484,0.478,0.953,0.269,1.471c0.153,0.018,0.405-0.07,0.528-0.142l0.02,0.019
	L9.026,16.243z M48.092,39.48c0.026-0.465-0.228-1.219-0.219-1.699c-0.124-0.059-1.593,0.248-1.729,0.361
	c-0.338,0.414,0.08,1.414,0.03,1.902c0.11,0.271,1.749-0.125,2.082-0.047C48.262,39.804,48.144,39.656,48.092,39.48
	C48.101,39.328,48.144,39.656,48.092,39.48z M20.692,25.985c-0.33-0.286-0.699-1.035-1.094-1.141
	c-0.094,0.02-2.492,0.986-2.587,1.143c1.011,0.061,1.563,1.518,2.404,1.645C19.841,27.12,20.53,26.496,20.692,25.985
	C20.61,25.914,20.662,26.08,20.692,25.985z M11.827,50.486c0.588-0.396,2.8-4.162,2.763-4.916c0.05,0.008,0.03,0.041,0.071,0.053
	c0.189-0.357,0.224-0.506,0.457-0.83c-0.045-0.02-0.094,0.029-0.117-0.033c1.227-1.824,1.965-3.959,3.013-5.879
	c1.054-1.928,1.804-5.373,3.509-6.787c0.043,0.02,0.09,0.049,0.119,0.033c0.074-0.279,1.387-0.98,1.653-0.953
	c0.118-0.291,0.969-1.263,1.218-1.597c-0.058-0.069-2.277,1.146-2.726,0.771c0.022-0.184,0.114-0.315,0.276-0.395
	c-0.103,0.004-0.091-0.021-0.199-0.07c-2.952,4.112-4.584,8.788-7.008,13.176c-0.031-0.01-0.072-0.053-0.078,0.002
	c-0.515,2.572-2.711,4.92-2.973,7.42l-0.015-0.01l-0.009,0.016c-0.029,0.027-0.076,0.008-0.125-0.02
	c-0.053,0.061,0.046,0.062,0.005,0.117c-0.194,0.018-0.261,0.133-0.201,0.352c0.046-0.068,0.075,0,0.142,0.029
	c0.112-0.092,0.182-0.322,0.213-0.463l0.027,0.004L11.827,50.486z M24.888,30.732c-0.336,0.631,0.393,1.924,0.504,2.506
	c0.034-0.01,0.096-0.027,0.111,0.012c-0.006,0.062-0.051,0.145-0.033,0.195c0.172,0.023,0.236-0.242,0.365-0.332
	c-0.109-0.775-0.363-1.82-0.605-2.535c0.08-0.102,0.068-0.189-0.033-0.266C25.071,30.433,24.959,30.597,24.888,30.732
	C24.76,30.97,24.959,30.597,24.888,30.732z M30.519,33.572c-0.406,1.889,1.028,3.1,2.301,4.297
	c-0.006,0.014-0.188-1.326-0.186-1.318c-0.049-0.035-0.05,0.055-0.102,0.01c0.137-0.229,0.103-0.393-0.102-0.488
	c0.479-1.021-0.996-2.648-1.914-2.922C30.476,33.306,30.473,33.449,30.519,33.572C30.469,33.802,30.473,33.449,30.519,33.572z
	 M25.582,33.787c-0.733,1.352-2.3,2.43-3.197,3.699c-1.112,1.576-2.336,3.107-3.511,4.643c-0.747,0.971-1.561,1.916-2.27,2.9
	c-0.555,0.77-2.564,2.742-2.699,3.795c0.186,0.008,1.771-1.859,1.731-1.92c-0.01,0.021-0.053,0-0.048-0.021
	c0.895-2.039,3.893-4.314,5.357-6.074c0.931-1.127,5.125-5.275,4.893-6.9c-0.076,0.037-0.166,0.207-0.248,0.117
	c0.113-0.232,0.396-0.451,0.213-0.674C25.649,33.416,25.664,33.636,25.582,33.787C25.528,33.886,25.664,33.636,25.582,33.787z
	 M23.957,33.423c-0.087-0.158-0.124-0.367-0.136-0.543c-0.725-1.436-3.217,4.246-3.346,4.762c0.92-1.285,3.16-2.588,3.791-3.883
	C24.196,33.63,24.028,33.554,23.957,33.423C23.937,33.386,24.028,33.554,23.957,33.423z M9.222,35.333
	c-0.285,0.123-1.921-0.113-2.136-0.172c-0.25,0.531-1,0.898-1.401,1.283c0.85,0.088,1.885,0.133,2.764,0.152
	c0.127-0.119,0.838-1.139,0.822-1.199C9.251,35.376,9.241,35.353,9.222,35.333C9.071,35.4,9.241,35.353,9.222,35.333z
	 M25.224,50.271c-0.199,0.457-0.506,0.588-0.751,1.004c0.302,0.133,0.575,1.293,0.64,1.625c0.144,0.145,0.129,0.469,0.188,0.684
	c0.421-0.623,1.236-1.535,1.568-2.148c-0.717-0.52-0.76-1.227-1.293-1.75C25.46,49.861,25.305,50.082,25.224,50.271
	C25.174,50.384,25.305,50.082,25.224,50.271z"/>
</svg>
